<mxfile host="65bd71144e" pages="3">
    <diagram id="aVY_EtYT19Q-p2ff1EQT" name="Cases">
        <mxGraphModel dx="634" dy="835" grid="1" gridSize="10" guides="1" tooltips="1" connect="1" arrows="1" fold="1" page="1" pageScale="1" pageWidth="1169" pageHeight="827" math="0" shadow="0">
            <root>
                <mxCell id="gYrfWHa4FjFpyKefSDdU-0"/>
                <mxCell id="gYrfWHa4FjFpyKefSDdU-1" style="locked=1;" parent="gYrfWHa4FjFpyKefSDdU-0"/>
                <mxCell id="Vyva9ZWAYahVwD9Dae5T-2" value="Systems" style="" parent="gYrfWHa4FjFpyKefSDdU-0"/>
                <mxCell id="mvKCp4qO6vFo9WbeTyr_-0" value="SAP" style="ellipse;whiteSpace=wrap;html=1;" parent="Vyva9ZWAYahVwD9Dae5T-2" vertex="1">
                    <mxGeometry x="740" y="90" width="140" height="70" as="geometry"/>
                </mxCell>
                <mxCell id="wA3W6dd1tmaqiunWesbT-0" value="System" style="ellipse;whiteSpace=wrap;html=1;" parent="Vyva9ZWAYahVwD9Dae5T-2" vertex="1">
                    <mxGeometry x="500" y="480" width="140" height="70" as="geometry"/>
                </mxCell>
                <mxCell id="Vyva9ZWAYahVwD9Dae5T-0" value="C1" style="ellipse;whiteSpace=wrap;html=1;" parent="Vyva9ZWAYahVwD9Dae5T-2" vertex="1">
                    <mxGeometry x="560" y="90" width="140" height="70" as="geometry"/>
                </mxCell>
                <mxCell id="JgX-qIHhVJzYMHbSjBRp-19" value="internet" style="ellipse;shape=cloud;whiteSpace=wrap;html=1;" parent="Vyva9ZWAYahVwD9Dae5T-2" vertex="1">
                    <mxGeometry x="220" y="480" width="120" height="80" as="geometry"/>
                </mxCell>
                <mxCell id="Vyva9ZWAYahVwD9Dae5T-1" value="Actors" parent="gYrfWHa4FjFpyKefSDdU-0"/>
                <mxCell id="EpNgOCHrG1jst3FjRjRy-0" value="customer" style="shape=umlActor;verticalLabelPosition=bottom;verticalAlign=top;html=1;" parent="Vyva9ZWAYahVwD9Dae5T-1" vertex="1">
                    <mxGeometry x="520" y="20" width="30" height="60" as="geometry"/>
                </mxCell>
                <mxCell id="EpNgOCHrG1jst3FjRjRy-1" value="agent" style="shape=umlActor;verticalLabelPosition=bottom;verticalAlign=top;html=1;" parent="Vyva9ZWAYahVwD9Dae5T-1" vertex="1">
                    <mxGeometry x="30" y="350" width="30" height="60" as="geometry"/>
                </mxCell>
                <mxCell id="EpNgOCHrG1jst3FjRjRy-2" value="vendor" style="shape=umlActor;verticalLabelPosition=bottom;verticalAlign=top;html=1;" parent="Vyva9ZWAYahVwD9Dae5T-1" vertex="1">
                    <mxGeometry x="680" y="270" width="30" height="60" as="geometry"/>
                </mxCell>
                <mxCell id="gV8tMV_9s2gB_6hGirwq-1" value="user" style="shape=umlActor;verticalLabelPosition=bottom;verticalAlign=top;html=1;" parent="Vyva9ZWAYahVwD9Dae5T-1" vertex="1">
                    <mxGeometry x="310" y="80" width="30" height="60" as="geometry"/>
                </mxCell>
                <mxCell id="gV8tMV_9s2gB_6hGirwq-0" value="Customer's evaluation" parent="gYrfWHa4FjFpyKefSDdU-0"/>
                <mxCell id="Vyva9ZWAYahVwD9Dae5T-3" value="Tender, pre-order" style="" parent="gYrfWHa4FjFpyKefSDdU-0"/>
                <mxCell id="Vyva9ZWAYahVwD9Dae5T-7" value="item list" style="edgeStyle=orthogonalEdgeStyle;rounded=0;orthogonalLoop=1;jettySize=auto;html=1;curved=1;" parent="Vyva9ZWAYahVwD9Dae5T-3" source="mvKCp4qO6vFo9WbeTyr_-0" target="Vyva9ZWAYahVwD9Dae5T-10" edge="1">
                    <mxGeometry relative="1" as="geometry">
                        <mxPoint x="440" y="110" as="targetPoint"/>
                    </mxGeometry>
                </mxCell>
                <mxCell id="JgX-qIHhVJzYMHbSjBRp-1" value="marketed prices" style="edgeStyle=orthogonalEdgeStyle;curved=1;rounded=0;orthogonalLoop=1;jettySize=auto;html=1;" parent="Vyva9ZWAYahVwD9Dae5T-3" source="Vyva9ZWAYahVwD9Dae5T-14" target="EpNgOCHrG1jst3FjRjRy-1" edge="1">
                    <mxGeometry relative="1" as="geometry">
                        <mxPoint x="230" y="280" as="targetPoint"/>
                    </mxGeometry>
                </mxCell>
                <mxCell id="Vyva9ZWAYahVwD9Dae5T-9" value="pre-order" style="swimlane;fontStyle=0;childLayout=stackLayout;horizontal=1;startSize=26;fillColor=none;horizontalStack=0;resizeParent=1;resizeParentMax=0;resizeLast=0;collapsible=1;marginBottom=0;" parent="Vyva9ZWAYahVwD9Dae5T-3" vertex="1">
                    <mxGeometry x="160" y="170" width="310" height="166" as="geometry"/>
                </mxCell>
                <mxCell id="Vyva9ZWAYahVwD9Dae5T-10" value="Description:&#10;List of items without prices that exceeds real lot. Manual clean up by user and filling with prices." style="text;strokeColor=none;fillColor=none;align=left;verticalAlign=top;spacingLeft=4;spacingRight=4;overflow=hidden;rotatable=0;points=[[0,0.5],[1,0.5]];portConstraint=eastwest;collapsible=1;whiteSpace=wrap;" parent="Vyva9ZWAYahVwD9Dae5T-9" vertex="1">
                    <mxGeometry y="26" width="310" height="60" as="geometry">
                        <mxRectangle y="26" width="310" height="20" as="alternateBounds"/>
                    </mxGeometry>
                </mxCell>
                <mxCell id="Vyva9ZWAYahVwD9Dae5T-14" value="3 kinds of price:&#10;indicated - informed by 3 vendors - more reliable then tendered (very rare happened);&#10;confirmed - previous tenders from system;&#10;projected - found in independed media." style="text;strokeColor=none;fillColor=none;align=left;verticalAlign=top;spacingLeft=4;spacingRight=4;overflow=hidden;rotatable=0;points=[[0,0.5],[1,0.5]];portConstraint=eastwest;collapsible=1;whiteSpace=wrap;" parent="Vyva9ZWAYahVwD9Dae5T-9" vertex="1">
                    <mxGeometry y="86" width="310" height="80" as="geometry">
                        <mxRectangle y="46" width="310" height="20" as="alternateBounds"/>
                    </mxGeometry>
                </mxCell>
                <mxCell id="Vyva9ZWAYahVwD9Dae5T-13" value="confirmed prices" style="edgeStyle=orthogonalEdgeStyle;curved=1;rounded=0;orthogonalLoop=1;jettySize=auto;html=1;" parent="Vyva9ZWAYahVwD9Dae5T-3" source="wA3W6dd1tmaqiunWesbT-0" target="Vyva9ZWAYahVwD9Dae5T-14" edge="1">
                    <mxGeometry relative="1" as="geometry"/>
                </mxCell>
                <mxCell id="Vyva9ZWAYahVwD9Dae5T-15" value="iindicated prices" style="edgeStyle=orthogonalEdgeStyle;curved=1;rounded=0;orthogonalLoop=1;jettySize=auto;html=1;exitX=0.5;exitY=0;exitDx=0;exitDy=0;exitPerimeter=0;" parent="Vyva9ZWAYahVwD9Dae5T-3" source="EpNgOCHrG1jst3FjRjRy-2" target="Vyva9ZWAYahVwD9Dae5T-14" edge="1">
                    <mxGeometry relative="1" as="geometry"/>
                </mxCell>
                <mxCell id="JgX-qIHhVJzYMHbSjBRp-20" value="projected prices" style="edgeStyle=orthogonalEdgeStyle;curved=1;rounded=0;orthogonalLoop=1;jettySize=auto;html=1;entryX=1;entryY=0.5;entryDx=0;entryDy=0;" parent="Vyva9ZWAYahVwD9Dae5T-3" source="JgX-qIHhVJzYMHbSjBRp-19" target="Vyva9ZWAYahVwD9Dae5T-14" edge="1">
                    <mxGeometry relative="1" as="geometry"/>
                </mxCell>
                <mxCell id="JgX-qIHhVJzYMHbSjBRp-33" value="initiation" style="edgeStyle=orthogonalEdgeStyle;curved=1;rounded=0;orthogonalLoop=1;jettySize=auto;html=1;" parent="Vyva9ZWAYahVwD9Dae5T-3" source="EpNgOCHrG1jst3FjRjRy-0" target="mvKCp4qO6vFo9WbeTyr_-0" edge="1">
                    <mxGeometry relative="1" as="geometry"/>
                </mxCell>
                <mxCell id="JgX-qIHhVJzYMHbSjBRp-2" value="Tender, substityting" style="" parent="gYrfWHa4FjFpyKefSDdU-0" visible="0"/>
                <mxCell id="JgX-qIHhVJzYMHbSjBRp-3" style="edgeStyle=orthogonalEdgeStyle;rounded=0;orthogonalLoop=1;jettySize=auto;html=1;curved=1;" parent="JgX-qIHhVJzYMHbSjBRp-2" target="JgX-qIHhVJzYMHbSjBRp-6" edge="1">
                    <mxGeometry relative="1" as="geometry">
                        <mxPoint x="440" y="110" as="targetPoint"/>
                    </mxGeometry>
                </mxCell>
                <mxCell id="JgX-qIHhVJzYMHbSjBRp-5" value="substityte list" style="swimlane;fontStyle=0;childLayout=stackLayout;horizontal=1;startSize=26;fillColor=none;horizontalStack=0;resizeParent=1;resizeParentMax=0;resizeLast=0;collapsible=1;marginBottom=0;" parent="JgX-qIHhVJzYMHbSjBRp-2" vertex="1">
                    <mxGeometry x="140" y="180" width="320" height="166" as="geometry"/>
                </mxCell>
                <mxCell id="JgX-qIHhVJzYMHbSjBRp-6" value="List of items that are not available with possible substityte.Â " style="text;strokeColor=none;fillColor=none;align=left;verticalAlign=top;spacingLeft=4;spacingRight=4;overflow=hidden;rotatable=0;points=[[0,0.5],[1,0.5]];portConstraint=eastwest;collapsible=1;whiteSpace=wrap;" parent="JgX-qIHhVJzYMHbSjBRp-5" vertex="1">
                    <mxGeometry y="26" width="320" height="40" as="geometry">
                        <mxRectangle y="26" width="310" height="20" as="alternateBounds"/>
                    </mxGeometry>
                </mxCell>
                <mxCell id="JgX-qIHhVJzYMHbSjBRp-8" value="Possible results&#10;Customer confirmed substitute -&gt; additinal item row that: 1. Reference to substituted item.&#10;2. Reference to customer vaucher.&#10;Customer reject substitute -&gt; inform agent resons." style="text;strokeColor=none;fillColor=none;align=left;verticalAlign=top;spacingLeft=4;spacingRight=4;overflow=hidden;rotatable=0;points=[[0,0.5],[1,0.5]];portConstraint=eastwest;collapsible=1;whiteSpace=wrap;" parent="JgX-qIHhVJzYMHbSjBRp-5" vertex="1">
                    <mxGeometry y="66" width="320" height="100" as="geometry">
                        <mxRectangle y="66" width="310" height="20" as="alternateBounds"/>
                    </mxGeometry>
                </mxCell>
                <mxCell id="JgX-qIHhVJzYMHbSjBRp-11" value="substitute items" style="edgeStyle=orthogonalEdgeStyle;curved=1;rounded=0;orthogonalLoop=1;jettySize=auto;html=1;" parent="JgX-qIHhVJzYMHbSjBRp-2" source="EpNgOCHrG1jst3FjRjRy-1" target="JgX-qIHhVJzYMHbSjBRp-6" edge="1">
                    <mxGeometry relative="1" as="geometry"/>
                </mxCell>
                <mxCell id="JgX-qIHhVJzYMHbSjBRp-14" value="substitute decision" style="edgeStyle=orthogonalEdgeStyle;curved=1;rounded=0;orthogonalLoop=1;jettySize=auto;html=1;" parent="JgX-qIHhVJzYMHbSjBRp-2" source="EpNgOCHrG1jst3FjRjRy-0" target="JgX-qIHhVJzYMHbSjBRp-8" edge="1">
                    <mxGeometry relative="1" as="geometry">
                        <mxPoint x="570" y="160" as="sourcePoint"/>
                    </mxGeometry>
                </mxCell>
                <mxCell id="JgX-qIHhVJzYMHbSjBRp-15" value="substitute decition" style="edgeStyle=orthogonalEdgeStyle;curved=1;rounded=0;orthogonalLoop=1;jettySize=auto;html=1;entryX=1;entryY=0.3333333333333333;entryDx=0;entryDy=0;entryPerimeter=0;" parent="JgX-qIHhVJzYMHbSjBRp-2" source="JgX-qIHhVJzYMHbSjBRp-8" target="EpNgOCHrG1jst3FjRjRy-1" edge="1">
                    <mxGeometry relative="1" as="geometry"/>
                </mxCell>
                <mxCell id="JgX-qIHhVJzYMHbSjBRp-17" value="add confirmed substitute item records" style="edgeStyle=orthogonalEdgeStyle;curved=1;rounded=0;orthogonalLoop=1;jettySize=auto;html=1;" parent="JgX-qIHhVJzYMHbSjBRp-2" source="JgX-qIHhVJzYMHbSjBRp-8" target="wA3W6dd1tmaqiunWesbT-0" edge="1">
                    <mxGeometry relative="1" as="geometry"/>
                </mxCell>
                <mxCell id="JgX-qIHhVJzYMHbSjBRp-18" value="substitute offers" style="edgeStyle=orthogonalEdgeStyle;curved=1;rounded=0;orthogonalLoop=1;jettySize=auto;html=1;entryX=0;entryY=0.3333333333333333;entryDx=0;entryDy=0;entryPerimeter=0;" parent="JgX-qIHhVJzYMHbSjBRp-2" source="JgX-qIHhVJzYMHbSjBRp-6" target="EpNgOCHrG1jst3FjRjRy-0" edge="1">
                    <mxGeometry relative="1" as="geometry"/>
                </mxCell>
                <mxCell id="JgX-qIHhVJzYMHbSjBRp-21" value="Tender, pricing" style="locked=1;" parent="gYrfWHa4FjFpyKefSDdU-0" visible="0"/>
                <mxCell id="JgX-qIHhVJzYMHbSjBRp-22" value="item list" style="edgeStyle=orthogonalEdgeStyle;rounded=0;orthogonalLoop=1;jettySize=auto;html=1;curved=1;" parent="JgX-qIHhVJzYMHbSjBRp-21" target="JgX-qIHhVJzYMHbSjBRp-25" edge="1">
                    <mxGeometry relative="1" as="geometry">
                        <mxPoint x="440" y="110" as="targetPoint"/>
                    </mxGeometry>
                </mxCell>
                <mxCell id="JgX-qIHhVJzYMHbSjBRp-24" value="won item list" style="swimlane;fontStyle=0;childLayout=stackLayout;horizontal=1;startSize=26;fillColor=none;horizontalStack=0;resizeParent=1;resizeParentMax=0;resizeLast=0;collapsible=1;marginBottom=0;" parent="JgX-qIHhVJzYMHbSjBRp-21" vertex="1">
                    <mxGeometry x="230" y="170" width="310" height="106" as="geometry"/>
                </mxCell>
                <mxCell id="JgX-qIHhVJzYMHbSjBRp-25" value="List of items with price. Substituted items with old ids but all new details." style="text;strokeColor=none;fillColor=none;align=left;verticalAlign=top;spacingLeft=4;spacingRight=4;overflow=hidden;rotatable=0;points=[[0,0.5],[1,0.5]];portConstraint=eastwest;collapsible=1;whiteSpace=wrap;" parent="JgX-qIHhVJzYMHbSjBRp-24" vertex="1">
                    <mxGeometry y="26" width="310" height="40" as="geometry">
                        <mxRectangle y="26" width="310" height="20" as="alternateBounds"/>
                    </mxGeometry>
                </mxCell>
                <mxCell id="JgX-qIHhVJzYMHbSjBRp-27" value="Agreement for lot item delivery." style="text;strokeColor=none;fillColor=none;align=left;verticalAlign=top;spacingLeft=4;spacingRight=4;overflow=hidden;rotatable=0;points=[[0,0.5],[1,0.5]];portConstraint=eastwest;collapsible=1;whiteSpace=wrap;" parent="JgX-qIHhVJzYMHbSjBRp-24" vertex="1">
                    <mxGeometry y="66" width="310" height="40" as="geometry">
                        <mxRectangle y="66" width="310" height="20" as="alternateBounds"/>
                    </mxGeometry>
                </mxCell>
                <mxCell id="JgX-qIHhVJzYMHbSjBRp-32" value="won item list with vendor" style="edgeStyle=orthogonalEdgeStyle;curved=1;rounded=0;orthogonalLoop=1;jettySize=auto;html=1;" parent="JgX-qIHhVJzYMHbSjBRp-21" source="EpNgOCHrG1jst3FjRjRy-1" target="JgX-qIHhVJzYMHbSjBRp-25" edge="1">
                    <mxGeometry relative="1" as="geometry"/>
                </mxCell>
                <mxCell id="JgX-qIHhVJzYMHbSjBRp-34" value="updated won prices" style="edgeStyle=orthogonalEdgeStyle;curved=1;rounded=0;orthogonalLoop=1;jettySize=auto;html=1;" parent="JgX-qIHhVJzYMHbSjBRp-21" source="JgX-qIHhVJzYMHbSjBRp-25" target="wA3W6dd1tmaqiunWesbT-0" edge="1">
                    <mxGeometry relative="1" as="geometry"/>
                </mxCell>
                <mxCell id="JgX-qIHhVJzYMHbSjBRp-35" value="agreement" style="edgeStyle=orthogonalEdgeStyle;curved=1;rounded=0;orthogonalLoop=1;jettySize=auto;html=1;entryX=0.5;entryY=0;entryDx=0;entryDy=0;entryPerimeter=0;" parent="JgX-qIHhVJzYMHbSjBRp-21" source="JgX-qIHhVJzYMHbSjBRp-27" target="EpNgOCHrG1jst3FjRjRy-2" edge="1">
                    <mxGeometry relative="1" as="geometry"/>
                </mxCell>
                <mxCell id="JgX-qIHhVJzYMHbSjBRp-36" value="lot filful update" style="" parent="gYrfWHa4FjFpyKefSDdU-0" visible="0"/>
                <mxCell id="JgX-qIHhVJzYMHbSjBRp-37" value="item list" style="edgeStyle=orthogonalEdgeStyle;rounded=0;orthogonalLoop=1;jettySize=auto;html=1;curved=1;" parent="JgX-qIHhVJzYMHbSjBRp-36" target="JgX-qIHhVJzYMHbSjBRp-39" edge="1">
                    <mxGeometry relative="1" as="geometry">
                        <mxPoint x="440" y="110" as="targetPoint"/>
                    </mxGeometry>
                </mxCell>
                <mxCell id="JgX-qIHhVJzYMHbSjBRp-38" value="lot update with substituted items" style="swimlane;fontStyle=0;childLayout=stackLayout;horizontal=1;startSize=26;fillColor=none;horizontalStack=0;resizeParent=1;resizeParentMax=0;resizeLast=0;collapsible=1;marginBottom=0;" parent="JgX-qIHhVJzYMHbSjBRp-36" vertex="1">
                    <mxGeometry x="230" y="170" width="310" height="106" as="geometry"/>
                </mxCell>
                <mxCell id="JgX-qIHhVJzYMHbSjBRp-39" value="list of items where substityted records doubled." style="text;strokeColor=none;fillColor=none;align=left;verticalAlign=top;spacingLeft=4;spacingRight=4;overflow=hidden;rotatable=0;points=[[0,0.5],[1,0.5]];portConstraint=eastwest;collapsible=1;whiteSpace=wrap;" parent="JgX-qIHhVJzYMHbSjBRp-38" vertex="1">
                    <mxGeometry y="26" width="310" height="40" as="geometry">
                        <mxRectangle y="26" width="310" height="20" as="alternateBounds"/>
                    </mxGeometry>
                </mxCell>
                <mxCell id="JgX-qIHhVJzYMHbSjBRp-40" value="Removed substetuted items from lot." style="text;strokeColor=none;fillColor=none;align=left;verticalAlign=top;spacingLeft=4;spacingRight=4;overflow=hidden;rotatable=0;points=[[0,0.5],[1,0.5]];portConstraint=eastwest;collapsible=1;whiteSpace=wrap;" parent="JgX-qIHhVJzYMHbSjBRp-38" vertex="1">
                    <mxGeometry y="66" width="310" height="40" as="geometry">
                        <mxRectangle y="66" width="310" height="20" as="alternateBounds"/>
                    </mxGeometry>
                </mxCell>
                <mxCell id="JgX-qIHhVJzYMHbSjBRp-42" value="won item list with vendor" style="edgeStyle=orthogonalEdgeStyle;curved=1;rounded=0;orthogonalLoop=1;jettySize=auto;html=1;" parent="JgX-qIHhVJzYMHbSjBRp-36" target="JgX-qIHhVJzYMHbSjBRp-39" edge="1">
                    <mxGeometry relative="1" as="geometry"/>
                </mxCell>
                <mxCell id="JgX-qIHhVJzYMHbSjBRp-43" value="updated won prices" style="edgeStyle=orthogonalEdgeStyle;curved=1;rounded=0;orthogonalLoop=1;jettySize=auto;html=1;" parent="JgX-qIHhVJzYMHbSjBRp-36" source="JgX-qIHhVJzYMHbSjBRp-39" edge="1">
                    <mxGeometry relative="1" as="geometry"/>
                </mxCell>
                <mxCell id="JgX-qIHhVJzYMHbSjBRp-44" value="agreement" style="edgeStyle=orthogonalEdgeStyle;curved=1;rounded=0;orthogonalLoop=1;jettySize=auto;html=1;entryX=0.5;entryY=0;entryDx=0;entryDy=0;entryPerimeter=0;" parent="JgX-qIHhVJzYMHbSjBRp-36" source="JgX-qIHhVJzYMHbSjBRp-40" edge="1">
                    <mxGeometry relative="1" as="geometry"/>
                </mxCell>
                <mxCell id="JgX-qIHhVJzYMHbSjBRp-45" style="edgeStyle=orthogonalEdgeStyle;curved=1;rounded=0;orthogonalLoop=1;jettySize=auto;html=1;" parent="JgX-qIHhVJzYMHbSjBRp-36" source="mvKCp4qO6vFo9WbeTyr_-0" target="JgX-qIHhVJzYMHbSjBRp-39" edge="1">
                    <mxGeometry relative="1" as="geometry"/>
                </mxCell>
                <mxCell id="JgX-qIHhVJzYMHbSjBRp-46" value="new id assignment" style="edgeStyle=orthogonalEdgeStyle;curved=1;rounded=0;orthogonalLoop=1;jettySize=auto;html=1;" parent="JgX-qIHhVJzYMHbSjBRp-36" source="gV8tMV_9s2gB_6hGirwq-1" target="Vyva9ZWAYahVwD9Dae5T-0" edge="1">
                    <mxGeometry relative="1" as="geometry"/>
                </mxCell>
                <mxCell id="JgX-qIHhVJzYMHbSjBRp-47" value="update substituting items with new ids&lt;br&gt;arcieved substetuted items" style="edgeStyle=orthogonalEdgeStyle;curved=1;rounded=0;orthogonalLoop=1;jettySize=auto;html=1;" parent="JgX-qIHhVJzYMHbSjBRp-36" source="JgX-qIHhVJzYMHbSjBRp-40" target="wA3W6dd1tmaqiunWesbT-0" edge="1">
                    <mxGeometry relative="1" as="geometry"/>
                </mxCell>
                <mxCell id="JgX-qIHhVJzYMHbSjBRp-49" value="assign order" style="edgeStyle=orthogonalEdgeStyle;curved=1;rounded=0;orthogonalLoop=1;jettySize=auto;html=1;entryX=0.5;entryY=0;entryDx=0;entryDy=0;entryPerimeter=0;" parent="JgX-qIHhVJzYMHbSjBRp-36" source="EpNgOCHrG1jst3FjRjRy-0" target="gV8tMV_9s2gB_6hGirwq-1" edge="1">
                    <mxGeometry relative="1" as="geometry"/>
                </mxCell>
                <mxCell id="JgX-qIHhVJzYMHbSjBRp-50" style="edgeStyle=orthogonalEdgeStyle;curved=1;rounded=0;orthogonalLoop=1;jettySize=auto;html=1;" parent="JgX-qIHhVJzYMHbSjBRp-36" source="Vyva9ZWAYahVwD9Dae5T-0" target="mvKCp4qO6vFo9WbeTyr_-0" edge="1">
                    <mxGeometry relative="1" as="geometry"/>
                </mxCell>
            </root>
        </mxGraphModel>
    </diagram>
    <diagram id="sstd1SaVsSuAbXoKpTQc" name="Classes">
        <mxGraphModel dx="1803" dy="835" grid="1" gridSize="10" guides="1" tooltips="1" connect="1" arrows="1" fold="1" page="1" pageScale="1" pageWidth="1169" pageHeight="827" math="0" shadow="0">
            <root>
                <mxCell id="A0G2rsG5nSlXQciDm5xe-0"/>
                <mxCell id="A0G2rsG5nSlXQciDm5xe-1" style="locked=1;" parent="A0G2rsG5nSlXQciDm5xe-0" visible="0"/>
                <mxCell id="A0G2rsG5nSlXQciDm5xe-2" value="items" style="" parent="A0G2rsG5nSlXQciDm5xe-0"/>
                <mxCell id="A0G2rsG5nSlXQciDm5xe-3" value="Item" style="swimlane;fontStyle=0;childLayout=stackLayout;horizontal=1;startSize=26;fillColor=none;horizontalStack=0;resizeParent=1;resizeParentMax=0;resizeLast=0;collapsible=1;marginBottom=0;strokeWidth=2;" parent="A0G2rsG5nSlXQciDm5xe-2" vertex="1">
                    <mxGeometry x="240" y="450" width="360" height="394" as="geometry"/>
                </mxCell>
                <mxCell id="g-PcEw2lqmucDllcpCbe-27" value="Discription&#10;Minimum element of lists that are values items documents.&#10;&#10;Item document are customers' wishes,Â assignments to agent, tender results or shipment." style="text;fillColor=none;align=left;verticalAlign=top;spacingLeft=4;spacingRight=4;overflow=hidden;rotatable=0;points=[[0,0.5],[1,0.5]];portConstraint=eastwest;collapsible=1;spacingBottom=1;strokeColor=#000000;whiteSpace=wrap;" parent="A0G2rsG5nSlXQciDm5xe-3" vertex="1" collapsed="1">
                    <mxGeometry y="26" width="360" height="20" as="geometry">
                        <mxRectangle y="26" width="360" height="80" as="alternateBounds"/>
                    </mxGeometry>
                </mxCell>
                <mxCell id="A0G2rsG5nSlXQciDm5xe-4" value="# id: str&#10;ÐÐ¾Ð´, Ð¼Ð°ÑÐµÑÐ¸Ð°Ð»&#10;unique" style="text;fillColor=none;align=left;verticalAlign=top;spacingLeft=4;spacingRight=4;overflow=hidden;rotatable=0;points=[[0,0.5],[1,0.5]];portConstraint=eastwest;dashed=1;collapsible=1;spacingBottom=1;strokeColor=#000000;" parent="A0G2rsG5nSlXQciDm5xe-3" vertex="1" collapsed="1">
                    <mxGeometry y="46" width="360" height="20" as="geometry">
                        <mxRectangle y="106" width="360" height="60" as="alternateBounds"/>
                    </mxGeometry>
                </mxCell>
                <mxCell id="8BI7KFvEaQHY4zSP8mBb-16" value="# customer: Party&#10;ÐÐ¾Ð´, Ð¼Ð°ÑÐµÑÐ¸Ð°Ð»&#10;unique" style="text;fillColor=none;align=left;verticalAlign=top;spacingLeft=4;spacingRight=4;overflow=hidden;rotatable=0;points=[[0,0.5],[1,0.5]];portConstraint=eastwest;dashed=1;collapsible=1;spacingBottom=1;strokeColor=#000000;" parent="A0G2rsG5nSlXQciDm5xe-3" vertex="1" collapsed="1">
                    <mxGeometry y="66" width="360" height="20" as="geometry">
                        <mxRectangle y="66" width="360" height="60" as="alternateBounds"/>
                    </mxGeometry>
                </mxCell>
                <mxCell id="BtakcHzB1a-_0mcNwY16-0" value="# nomenclature_id: str&#10;reference to nomenklature table. Actually I do not understand this position." style="text;fillColor=none;align=left;verticalAlign=top;spacingLeft=4;spacingRight=4;overflow=hidden;rotatable=0;points=[[0,0.5],[1,0.5]];portConstraint=eastwest;dashed=1;collapsible=1;spacingBottom=1;strokeColor=#000000;whiteSpace=wrap;" parent="A0G2rsG5nSlXQciDm5xe-3" vertex="1" collapsed="1">
                    <mxGeometry y="86" width="360" height="20" as="geometry">
                        <mxRectangle y="206" width="360" height="80" as="alternateBounds"/>
                    </mxGeometry>
                </mxCell>
                <mxCell id="u5KJg5WEwVs5rTtCQB7s-0" value="# title: str&#10;ÐÐ¾Ð»Ð½Ð¾Ðµ Ð½Ð°Ð¸Ð¼ÐµÐ½Ð¾Ð²Ð°Ð½Ð¸Ðµ ÐÐ¢Ð  (ÐÐÐ¡Ð¢,Ð¢Ð£,â ÑÐµÑÑÐµÐ¶Ð°)" style="text;fillColor=none;align=left;verticalAlign=top;spacingLeft=4;spacingRight=4;overflow=hidden;rotatable=0;points=[[0,0.5],[1,0.5]];portConstraint=eastwest;dashed=1;collapsible=1;spacingBottom=1;strokeColor=#000000;" parent="A0G2rsG5nSlXQciDm5xe-3" vertex="1" collapsed="1">
                    <mxGeometry y="106" width="360" height="20" as="geometry">
                        <mxRectangle y="126" width="360" height="40" as="alternateBounds"/>
                    </mxGeometry>
                </mxCell>
                <mxCell id="3Qzd4xNzGxL7k0cBxnXD-0" value="# details: str&#10;ÐÐÐ¡Ð¢, â ÑÐµÑÑÐµÐ¶Ð°, ÑÐ°ÑÐ°ÐºÑÐµÑÐ¸ÑÑÐ¸ÐºÐ¸" style="text;fillColor=none;align=left;verticalAlign=top;spacingLeft=4;spacingRight=4;overflow=hidden;rotatable=0;points=[[0,0.5],[1,0.5]];portConstraint=eastwest;dashed=1;collapsible=1;spacingBottom=1;strokeColor=#000000;" parent="A0G2rsG5nSlXQciDm5xe-3" vertex="1" collapsed="1">
                    <mxGeometry y="126" width="360" height="20" as="geometry">
                        <mxRectangle y="166" width="360" height="40" as="alternateBounds"/>
                    </mxGeometry>
                </mxCell>
                <mxCell id="ShmAaooDHbrHlHVb1YOy-0" value="# measure: str&#10;ÐµÐ´.Ð¸Ð·Ð¼" style="text;fillColor=none;align=left;verticalAlign=top;spacingLeft=4;spacingRight=4;overflow=hidden;rotatable=0;points=[[0,0.5],[1,0.5]];portConstraint=eastwest;dashed=1;collapsible=1;spacingBottom=1;strokeColor=#000000;" parent="A0G2rsG5nSlXQciDm5xe-3" vertex="1" collapsed="1">
                    <mxGeometry y="146" width="360" height="20" as="geometry">
                        <mxRectangle y="186" width="360" height="40" as="alternateBounds"/>
                    </mxGeometry>
                </mxCell>
                <mxCell id="ShmAaooDHbrHlHVb1YOy-1" value="# price: float&#10;Ð¦ÐµÐ½Ð° Ð¿Ð»Ð°Ð½Ð¾Ð²Ð°Ñ, ÑÑÐ±." style="text;fillColor=none;align=left;verticalAlign=top;spacingLeft=4;spacingRight=4;overflow=hidden;rotatable=0;points=[[0,0.5],[1,0.5]];portConstraint=eastwest;dashed=1;collapsible=1;spacingBottom=1;strokeColor=#000000;" parent="A0G2rsG5nSlXQciDm5xe-3" vertex="1" collapsed="1">
                    <mxGeometry y="166" width="360" height="20" as="geometry">
                        <mxRectangle y="206" width="360" height="40" as="alternateBounds"/>
                    </mxGeometry>
                </mxCell>
                <mxCell id="g-PcEw2lqmucDllcpCbe-55" value="# price_status: union['archived', 'indicated',Â 'confirmed', 'projected']&#10;archived - not used for searching;&#10;indicated - indicated from reliable vendor;&#10;confirmed - resulted from tender;&#10;projected - found on market" style="text;fillColor=none;align=left;verticalAlign=top;spacingLeft=4;spacingRight=4;overflow=hidden;rotatable=0;points=[[0,0.5],[1,0.5]];portConstraint=eastwest;dashed=1;collapsible=1;spacingBottom=1;strokeColor=#000000;" parent="A0G2rsG5nSlXQciDm5xe-3" vertex="1" collapsed="1">
                    <mxGeometry y="186" width="360" height="20" as="geometry">
                        <mxRectangle y="346" width="360" height="80" as="alternateBounds"/>
                    </mxGeometry>
                </mxCell>
                <mxCell id="g-PcEw2lqmucDllcpCbe-66" value="# sent_to_tender: float&#10;Price resulted from marketing and sent to tender." style="text;fillColor=none;align=left;verticalAlign=top;spacingLeft=4;spacingRight=4;overflow=hidden;rotatable=0;points=[[0,0.5],[1,0.5]];portConstraint=eastwest;dashed=1;collapsible=1;spacingBottom=1;strokeColor=#000000;" parent="A0G2rsG5nSlXQciDm5xe-3" vertex="1">
                    <mxGeometry y="206" width="360" height="40" as="geometry">
                        <mxRectangle y="246" width="360" height="20" as="alternateBounds"/>
                    </mxGeometry>
                </mxCell>
                <mxCell id="g-PcEw2lqmucDllcpCbe-56" value="# vendor_id: int&#10;Partner identity who either won tender of indicate price" style="text;fillColor=none;align=left;verticalAlign=top;spacingLeft=4;spacingRight=4;overflow=hidden;rotatable=0;points=[[0,0.5],[1,0.5]];portConstraint=eastwest;dashed=1;collapsible=1;spacingBottom=1;strokeColor=#000000;" parent="A0G2rsG5nSlXQciDm5xe-3" vertex="1" collapsed="1">
                    <mxGeometry y="246" width="360" height="20" as="geometry">
                        <mxRectangle y="246" width="360" height="40" as="alternateBounds"/>
                    </mxGeometry>
                </mxCell>
                <mxCell id="g-PcEw2lqmucDllcpCbe-64" value="# manufacturer_id: int&#10;Partner identity who either won tender of indicate price" style="text;fillColor=none;align=left;verticalAlign=top;spacingLeft=4;spacingRight=4;overflow=hidden;rotatable=0;points=[[0,0.5],[1,0.5]];portConstraint=eastwest;dashed=1;collapsible=1;spacingBottom=1;strokeColor=#000000;" parent="A0G2rsG5nSlXQciDm5xe-3" vertex="1" collapsed="1">
                    <mxGeometry y="266" width="360" height="20" as="geometry">
                        <mxRectangle y="266" width="360" height="40" as="alternateBounds"/>
                    </mxGeometry>
                </mxCell>
                <mxCell id="ShmAaooDHbrHlHVb1YOy-2" value="# created: DateTime" style="text;fillColor=none;align=left;verticalAlign=top;spacingLeft=4;spacingRight=4;overflow=hidden;rotatable=0;points=[[0,0.5],[1,0.5]];portConstraint=eastwest;dashed=1;collapsible=0;spacingBottom=1;strokeColor=#000000;" parent="A0G2rsG5nSlXQciDm5xe-3" vertex="1" collapsed="1">
                    <mxGeometry y="286" width="360" height="20" as="geometry">
                        <mxRectangle y="206" width="360" height="40" as="alternateBounds"/>
                    </mxGeometry>
                </mxCell>
                <mxCell id="ShmAaooDHbrHlHVb1YOy-3" value="# updated: DateTime" style="text;fillColor=none;align=left;verticalAlign=top;spacingLeft=4;spacingRight=4;overflow=hidden;rotatable=0;points=[[0,0.5],[1,0.5]];portConstraint=eastwest;dashed=1;collapsible=0;spacingBottom=1;strokeColor=#000000;" parent="A0G2rsG5nSlXQciDm5xe-3" vertex="1" collapsed="1">
                    <mxGeometry y="306" width="360" height="20" as="geometry">
                        <mxRectangle y="206" width="360" height="40" as="alternateBounds"/>
                    </mxGeometry>
                </mxCell>
                <mxCell id="ShmAaooDHbrHlHVb1YOy-4" value="# user_id: int" style="text;fillColor=none;align=left;verticalAlign=top;spacingLeft=4;spacingRight=4;overflow=hidden;rotatable=0;points=[[0,0.5],[1,0.5]];portConstraint=eastwest;dashed=1;collapsible=0;spacingBottom=1;strokeColor=#000000;" parent="A0G2rsG5nSlXQciDm5xe-3" vertex="1" collapsed="1">
                    <mxGeometry y="326" width="360" height="20" as="geometry">
                        <mxRectangle y="206" width="360" height="40" as="alternateBounds"/>
                    </mxGeometry>
                </mxCell>
                <mxCell id="ShmAaooDHbrHlHVb1YOy-5" value="" style="line;strokeWidth=2;fillColor=none;align=left;verticalAlign=middle;spacingTop=-1;spacingLeft=3;spacingRight=3;rotatable=0;labelPosition=right;points=[];portConstraint=eastwest;" parent="A0G2rsG5nSlXQciDm5xe-3" vertex="1">
                    <mxGeometry y="346" width="360" height="8" as="geometry"/>
                </mxCell>
                <mxCell id="ShmAaooDHbrHlHVb1YOy-6" value="+ init()&#10;Initiation" style="text;fillColor=none;align=left;verticalAlign=top;spacingLeft=4;spacingRight=4;overflow=hidden;rotatable=0;points=[[0,0.5],[1,0.5]];portConstraint=eastwest;dashed=1;collapsible=1;spacingBottom=1;strokeColor=#000000;" parent="A0G2rsG5nSlXQciDm5xe-3" vertex="1">
                    <mxGeometry y="354" width="360" height="40" as="geometry">
                        <mxRectangle y="86" width="360" height="20" as="alternateBounds"/>
                    </mxGeometry>
                </mxCell>
                <mxCell id="g-PcEw2lqmucDllcpCbe-57" value="Items" style="swimlane;fontStyle=0;childLayout=stackLayout;horizontal=1;startSize=26;fillColor=none;horizontalStack=0;resizeParent=1;resizeParentMax=0;resizeLast=0;collapsible=1;marginBottom=0;strokeWidth=2;" parent="A0G2rsG5nSlXQciDm5xe-2" vertex="1">
                    <mxGeometry x="-60" y="260" width="360" height="174" as="geometry">
                        <mxRectangle x="680" y="150" width="150" height="26" as="alternateBounds"/>
                    </mxGeometry>
                </mxCell>
                <mxCell id="g-PcEw2lqmucDllcpCbe-58" value="Discription&#10;List of ltem primary keys with quontities.&#10;Used in any collections." style="text;fillColor=none;align=left;verticalAlign=top;spacingLeft=4;spacingRight=4;overflow=hidden;rotatable=0;points=[[0,0.5],[1,0.5]];portConstraint=eastwest;collapsible=1;spacingBottom=1;strokeColor=#000000;whiteSpace=wrap;" parent="g-PcEw2lqmucDllcpCbe-57" vertex="1">
                    <mxGeometry y="26" width="360" height="80" as="geometry">
                        <mxRectangle y="26" width="360" height="20" as="alternateBounds"/>
                    </mxGeometry>
                </mxCell>
                <mxCell id="g-PcEw2lqmucDllcpCbe-61" value="# elements: [{item: Ite,, qnt: int}]" style="text;fillColor=none;align=left;verticalAlign=top;spacingLeft=4;spacingRight=4;overflow=hidden;rotatable=0;points=[[0,0.5],[1,0.5]];portConstraint=eastwest;dashed=1;collapsible=1;spacingBottom=1;strokeColor=#000000;container=1;" parent="g-PcEw2lqmucDllcpCbe-57" vertex="1" collapsed="1">
                    <mxGeometry y="106" width="360" height="20" as="geometry">
                        <mxRectangle y="166" width="360" height="80" as="alternateBounds"/>
                    </mxGeometry>
                </mxCell>
                <mxCell id="g-PcEw2lqmucDllcpCbe-62" value="" style="line;strokeWidth=2;fillColor=none;align=left;verticalAlign=middle;spacingTop=-1;spacingLeft=3;spacingRight=3;rotatable=0;labelPosition=right;points=[];portConstraint=eastwest;" parent="g-PcEw2lqmucDllcpCbe-57" vertex="1">
                    <mxGeometry y="126" width="360" height="8" as="geometry"/>
                </mxCell>
                <mxCell id="g-PcEw2lqmucDllcpCbe-63" value="+ init()&#10;Initiation" style="text;fillColor=none;align=left;verticalAlign=top;spacingLeft=4;spacingRight=4;overflow=hidden;rotatable=0;points=[[0,0.5],[1,0.5]];portConstraint=eastwest;dashed=1;collapsible=1;spacingBottom=1;strokeColor=#000000;" parent="g-PcEw2lqmucDllcpCbe-57" vertex="1">
                    <mxGeometry y="134" width="360" height="40" as="geometry">
                        <mxRectangle y="86" width="360" height="20" as="alternateBounds"/>
                    </mxGeometry>
                </mxCell>
                <mxCell id="8BI7KFvEaQHY4zSP8mBb-15" style="edgeStyle=orthogonalEdgeStyle;curved=1;rounded=0;orthogonalLoop=1;jettySize=auto;html=1;endArrow=block;endFill=0;" parent="A0G2rsG5nSlXQciDm5xe-2" source="8BI7KFvEaQHY4zSP8mBb-2" target="g-PcEw2lqmucDllcpCbe-57" edge="1">
                    <mxGeometry relative="1" as="geometry"/>
                </mxCell>
                <mxCell id="8BI7KFvEaQHY4zSP8mBb-2" value="Order" style="swimlane;fontStyle=0;childLayout=stackLayout;horizontal=1;startSize=26;fillColor=none;horizontalStack=0;resizeParent=1;resizeParentMax=0;resizeLast=0;collapsible=1;marginBottom=0;strokeWidth=2;" parent="A0G2rsG5nSlXQciDm5xe-2" vertex="1">
                    <mxGeometry x="-180" y="510" width="360" height="174" as="geometry">
                        <mxRectangle x="680" y="150" width="150" height="26" as="alternateBounds"/>
                    </mxGeometry>
                </mxCell>
                <mxCell id="8BI7KFvEaQHY4zSP8mBb-3" value="Discription&#10;List that generated by customer to forward it to user." style="text;fillColor=none;align=left;verticalAlign=top;spacingLeft=4;spacingRight=4;overflow=hidden;rotatable=0;points=[[0,0.5],[1,0.5]];portConstraint=eastwest;collapsible=1;spacingBottom=1;strokeColor=#000000;whiteSpace=wrap;" parent="8BI7KFvEaQHY4zSP8mBb-2" vertex="1">
                    <mxGeometry y="26" width="360" height="80" as="geometry">
                        <mxRectangle y="26" width="360" height="20" as="alternateBounds"/>
                    </mxGeometry>
                </mxCell>
                <mxCell id="8BI7KFvEaQHY4zSP8mBb-4" value="# elements: [{item: item.PKs, qnt: int}]" style="text;fillColor=none;align=left;verticalAlign=top;spacingLeft=4;spacingRight=4;overflow=hidden;rotatable=0;points=[[0,0.5],[1,0.5]];portConstraint=eastwest;dashed=1;collapsible=1;spacingBottom=1;strokeColor=#000000;container=1;" parent="8BI7KFvEaQHY4zSP8mBb-2" vertex="1" collapsed="1">
                    <mxGeometry y="106" width="360" height="20" as="geometry">
                        <mxRectangle y="166" width="360" height="80" as="alternateBounds"/>
                    </mxGeometry>
                </mxCell>
                <mxCell id="8BI7KFvEaQHY4zSP8mBb-5" value="" style="line;strokeWidth=2;fillColor=none;align=left;verticalAlign=middle;spacingTop=-1;spacingLeft=3;spacingRight=3;rotatable=0;labelPosition=right;points=[];portConstraint=eastwest;" parent="8BI7KFvEaQHY4zSP8mBb-2" vertex="1">
                    <mxGeometry y="126" width="360" height="8" as="geometry"/>
                </mxCell>
                <mxCell id="8BI7KFvEaQHY4zSP8mBb-6" value="+ init()&#10;Initiation" style="text;fillColor=none;align=left;verticalAlign=top;spacingLeft=4;spacingRight=4;overflow=hidden;rotatable=0;points=[[0,0.5],[1,0.5]];portConstraint=eastwest;dashed=1;collapsible=1;spacingBottom=1;strokeColor=#000000;" parent="8BI7KFvEaQHY4zSP8mBb-2" vertex="1">
                    <mxGeometry y="134" width="360" height="40" as="geometry">
                        <mxRectangle y="86" width="360" height="20" as="alternateBounds"/>
                    </mxGeometry>
                </mxCell>
                <mxCell id="8BI7KFvEaQHY4zSP8mBb-12" value="Relation" style="endArrow=open;html=1;endSize=12;startArrow=diamondThin;startSize=14;startFill=0;edgeStyle=orthogonalEdgeStyle;rounded=0;dashed=1;curved=1;" parent="A0G2rsG5nSlXQciDm5xe-2" source="A0G2rsG5nSlXQciDm5xe-3" target="g-PcEw2lqmucDllcpCbe-61" edge="1">
                    <mxGeometry relative="1" as="geometry">
                        <mxPoint x="500" y="610" as="sourcePoint"/>
                        <mxPoint x="660" y="610" as="targetPoint"/>
                    </mxGeometry>
                </mxCell>
                <mxCell id="8BI7KFvEaQHY4zSP8mBb-13" value="0..n" style="edgeLabel;resizable=0;html=1;align=left;verticalAlign=top;" parent="8BI7KFvEaQHY4zSP8mBb-12" connectable="0" vertex="1">
                    <mxGeometry x="-1" relative="1" as="geometry"/>
                </mxCell>
                <mxCell id="8BI7KFvEaQHY4zSP8mBb-14" value="1" style="edgeLabel;resizable=0;html=1;align=right;verticalAlign=top;" parent="8BI7KFvEaQHY4zSP8mBb-12" connectable="0" vertex="1">
                    <mxGeometry x="1" relative="1" as="geometry"/>
                </mxCell>
                <mxCell id="Vz0Sim9-IqS9Way4J2I2-18" value="Item" style="swimlane;fontStyle=3;childLayout=stackLayout;horizontal=1;startSize=26;fillColor=none;horizontalStack=0;resizeParent=1;resizeParentMax=0;resizeLast=0;collapsible=1;marginBottom=0;strokeWidth=2;fontSize=16;swimlaneLine=1;rounded=0;sketch=0;" parent="A0G2rsG5nSlXQciDm5xe-2" vertex="1">
                    <mxGeometry x="-960" y="80" width="360" height="214" as="geometry"/>
                </mxCell>
                <mxCell id="Vz0Sim9-IqS9Way4J2I2-19" value="Discription&#10;Minimum element of lists. Abstract class." style="text;fillColor=none;align=left;verticalAlign=top;spacingLeft=4;spacingRight=4;overflow=hidden;rotatable=0;points=[[0,0.5],[1,0.5]];portConstraint=eastwest;collapsible=1;spacingBottom=1;strokeColor=#000000;whiteSpace=wrap;fontStyle=0" parent="Vz0Sim9-IqS9Way4J2I2-18" vertex="1" collapsed="1">
                    <mxGeometry y="26" width="360" height="20" as="geometry">
                        <mxRectangle y="26" width="360" height="80" as="alternateBounds"/>
                    </mxGeometry>
                </mxCell>
                <mxCell id="Vz0Sim9-IqS9Way4J2I2-20" value="# id: str&#10;ÐÐ¾Ð´, Ð¼Ð°ÑÐµÑÐ¸Ð°Ð»&#10;8 letters code." style="text;fillColor=none;align=left;verticalAlign=top;spacingLeft=4;spacingRight=4;overflow=hidden;rotatable=0;points=[[0,0.5],[1,0.5]];portConstraint=eastwest;dashed=1;collapsible=1;spacingBottom=1;strokeColor=#000000;imageAspect=1;perimeter=rectanglePerimeter;perimeterSpacing=0;strokeWidth=1;" parent="Vz0Sim9-IqS9Way4J2I2-18" vertex="1" collapsed="1">
                    <mxGeometry y="46" width="360" height="20" as="geometry">
                        <mxRectangle y="106" width="360" height="60" as="alternateBounds"/>
                    </mxGeometry>
                </mxCell>
                <mxCell id="Vz0Sim9-IqS9Way4J2I2-23" value="# title: str&#10;ÐÐ¾Ð»Ð½Ð¾Ðµ Ð½Ð°Ð¸Ð¼ÐµÐ½Ð¾Ð²Ð°Ð½Ð¸Ðµ ÐÐ¢Ð  (ÐÐÐ¡Ð¢,Ð¢Ð£,â ÑÐµÑÑÐµÐ¶Ð°)&#10;variable" style="text;fillColor=none;align=left;verticalAlign=top;spacingLeft=4;spacingRight=4;overflow=hidden;rotatable=0;points=[[0,0.5],[1,0.5]];portConstraint=eastwest;dashed=1;collapsible=1;spacingBottom=1;strokeColor=#000000;strokeWidth=1;glass=0;" parent="Vz0Sim9-IqS9Way4J2I2-18" vertex="1" collapsed="1">
                    <mxGeometry y="66" width="360" height="20" as="geometry">
                        <mxRectangle y="126" width="360" height="60" as="alternateBounds"/>
                    </mxGeometry>
                </mxCell>
                <mxCell id="Vz0Sim9-IqS9Way4J2I2-24" value="# details: str&#10;ÐÐÐ¡Ð¢, â ÑÐµÑÑÐµÐ¶Ð°, ÑÐ°ÑÐ°ÐºÑÐµÑÐ¸ÑÑÐ¸ÐºÐ¸&#10;variable" style="text;fillColor=none;align=left;verticalAlign=top;spacingLeft=4;spacingRight=4;overflow=hidden;rotatable=0;points=[[0,0.5],[1,0.5]];portConstraint=eastwest;dashed=1;collapsible=1;spacingBottom=1;strokeColor=#000000;" parent="Vz0Sim9-IqS9Way4J2I2-18" vertex="1" collapsed="1">
                    <mxGeometry y="86" width="360" height="20" as="geometry">
                        <mxRectangle y="146" width="360" height="60" as="alternateBounds"/>
                    </mxGeometry>
                </mxCell>
                <mxCell id="IR7iwSmi7y8Wk9N8b0rk-0" value="# mesure: str&#10;ÐµÐ´.Ð¸Ð·Ð¼&#10;variable" style="text;fillColor=none;align=left;verticalAlign=top;spacingLeft=4;spacingRight=4;overflow=hidden;rotatable=0;points=[[0,0.5],[1,0.5]];portConstraint=eastwest;dashed=1;collapsible=1;spacingBottom=1;strokeColor=#000000;" parent="Vz0Sim9-IqS9Way4J2I2-18" vertex="1" collapsed="1">
                    <mxGeometry y="106" width="360" height="20" as="geometry">
                        <mxRectangle y="166" width="360" height="60" as="alternateBounds"/>
                    </mxGeometry>
                </mxCell>
                <mxCell id="w5peNm6pNYaapwzatczh-0" value="# nomenclature: str&#10;ÐÐ¾Ð¼ÐµÐ½ÐºÐ»Ð°ÑÑÑÐ°" style="text;fillColor=none;align=left;verticalAlign=top;spacingLeft=4;spacingRight=4;overflow=hidden;rotatable=0;points=[[0,0.5],[1,0.5]];portConstraint=eastwest;dashed=1;collapsible=1;spacingBottom=1;strokeColor=#000000;" parent="Vz0Sim9-IqS9Way4J2I2-18" vertex="1">
                    <mxGeometry y="126" width="360" height="60" as="geometry">
                        <mxRectangle y="126" width="360" height="20" as="alternateBounds"/>
                    </mxGeometry>
                </mxCell>
                <mxCell id="Vz0Sim9-IqS9Way4J2I2-21" value="" style="line;strokeWidth=2;fillColor=none;align=left;verticalAlign=middle;spacingTop=-1;spacingLeft=3;spacingRight=3;rotatable=0;labelPosition=right;points=[];portConstraint=eastwest;" parent="Vz0Sim9-IqS9Way4J2I2-18" vertex="1">
                    <mxGeometry y="186" width="360" height="8" as="geometry"/>
                </mxCell>
                <mxCell id="Vz0Sim9-IqS9Way4J2I2-22" value="+ init()&#10;Initiation" style="text;fillColor=none;align=left;verticalAlign=top;spacingLeft=4;spacingRight=4;overflow=hidden;rotatable=0;points=[[0,0.5],[1,0.5]];portConstraint=eastwest;dashed=1;collapsible=1;spacingBottom=1;strokeColor=#000000;" parent="Vz0Sim9-IqS9Way4J2I2-18" vertex="1" collapsed="1">
                    <mxGeometry y="194" width="360" height="20" as="geometry">
                        <mxRectangle y="74" width="360" height="40" as="alternateBounds"/>
                    </mxGeometry>
                </mxCell>
                <mxCell id="Vz0Sim9-IqS9Way4J2I2-25" value="PreTenderItem" style="swimlane;fontStyle=1;childLayout=stackLayout;horizontal=1;startSize=26;fillColor=none;horizontalStack=0;resizeParent=1;resizeParentMax=0;resizeLast=0;collapsible=1;marginBottom=0;strokeWidth=2;fontSize=16;" parent="A0G2rsG5nSlXQciDm5xe-2" vertex="1">
                    <mxGeometry x="-960" y="360" width="360" height="154" as="geometry"/>
                </mxCell>
                <mxCell id="Vz0Sim9-IqS9Way4J2I2-26" value="Discription&#10;Minimum element of pre tender list.&#10;Pre tender list resulted from SAP base on nomenclature and order." style="text;fillColor=none;align=left;verticalAlign=top;spacingLeft=4;spacingRight=4;overflow=hidden;rotatable=0;points=[[0,0.5],[1,0.5]];portConstraint=eastwest;collapsible=1;spacingBottom=1;strokeColor=#000000;whiteSpace=wrap;fontStyle=0" parent="Vz0Sim9-IqS9Way4J2I2-25" vertex="1">
                    <mxGeometry y="26" width="360" height="80" as="geometry">
                        <mxRectangle y="26" width="360" height="20" as="alternateBounds"/>
                    </mxGeometry>
                </mxCell>
                <mxCell id="Vz0Sim9-IqS9Way4J2I2-27" value="# id: str&#10;ÐÐ¾Ð´, Ð¼Ð°ÑÐµÑÐ¸Ð°Ð»&#10;unique" style="text;fillColor=none;align=left;verticalAlign=top;spacingLeft=4;spacingRight=4;overflow=hidden;rotatable=0;points=[[0,0.5],[1,0.5]];portConstraint=eastwest;dashed=1;collapsible=1;spacingBottom=1;strokeColor=#000000;" parent="Vz0Sim9-IqS9Way4J2I2-25" vertex="1" collapsed="1">
                    <mxGeometry y="106" width="360" height="20" as="geometry">
                        <mxRectangle y="106" width="360" height="60" as="alternateBounds"/>
                    </mxGeometry>
                </mxCell>
                <mxCell id="Vz0Sim9-IqS9Way4J2I2-28" value="" style="line;strokeWidth=2;fillColor=none;align=left;verticalAlign=middle;spacingTop=-1;spacingLeft=3;spacingRight=3;rotatable=0;labelPosition=right;points=[];portConstraint=eastwest;" parent="Vz0Sim9-IqS9Way4J2I2-25" vertex="1">
                    <mxGeometry y="126" width="360" height="8" as="geometry"/>
                </mxCell>
                <mxCell id="Vz0Sim9-IqS9Way4J2I2-29" value="+ init()&#10;Initiation" style="text;fillColor=none;align=left;verticalAlign=top;spacingLeft=4;spacingRight=4;overflow=hidden;rotatable=0;points=[[0,0.5],[1,0.5]];portConstraint=eastwest;dashed=1;collapsible=1;spacingBottom=1;strokeColor=#000000;" parent="Vz0Sim9-IqS9Way4J2I2-25" vertex="1" collapsed="1">
                    <mxGeometry y="134" width="360" height="20" as="geometry">
                        <mxRectangle y="74" width="360" height="40" as="alternateBounds"/>
                    </mxGeometry>
                </mxCell>
                <mxCell id="ShmAaooDHbrHlHVb1YOy-20" value="partners" style="" parent="A0G2rsG5nSlXQciDm5xe-0"/>
                <mxCell id="8BI7KFvEaQHY4zSP8mBb-7" value="Party" style="swimlane;fontStyle=0;childLayout=stackLayout;horizontal=1;startSize=26;fillColor=none;horizontalStack=0;resizeParent=1;resizeParentMax=0;resizeLast=0;collapsible=1;marginBottom=0;strokeWidth=2;" parent="ShmAaooDHbrHlHVb1YOy-20" vertex="1">
                    <mxGeometry x="-120" y="92" width="360" height="114" as="geometry">
                        <mxRectangle x="680" y="150" width="150" height="26" as="alternateBounds"/>
                    </mxGeometry>
                </mxCell>
                <mxCell id="8BI7KFvEaQHY4zSP8mBb-8" value="Discription&#10;Class represents party involved" style="text;fillColor=none;align=left;verticalAlign=top;spacingLeft=4;spacingRight=4;overflow=hidden;rotatable=0;points=[[0,0.5],[1,0.5]];portConstraint=eastwest;collapsible=1;spacingBottom=1;strokeColor=#000000;whiteSpace=wrap;" parent="8BI7KFvEaQHY4zSP8mBb-7" vertex="1" collapsed="1">
                    <mxGeometry y="26" width="360" height="20" as="geometry">
                        <mxRectangle y="26" width="360" height="80" as="alternateBounds"/>
                    </mxGeometry>
                </mxCell>
                <mxCell id="8BI7KFvEaQHY4zSP8mBb-9" value="Ttitle" style="text;fillColor=none;align=left;verticalAlign=top;spacingLeft=4;spacingRight=4;overflow=hidden;rotatable=0;points=[[0,0.5],[1,0.5]];portConstraint=eastwest;dashed=1;collapsible=1;spacingBottom=1;strokeColor=#000000;container=1;" parent="8BI7KFvEaQHY4zSP8mBb-7" vertex="1" collapsed="1">
                    <mxGeometry y="46" width="360" height="20" as="geometry">
                        <mxRectangle y="46" width="360" height="80" as="alternateBounds"/>
                    </mxGeometry>
                </mxCell>
                <mxCell id="8BI7KFvEaQHY4zSP8mBb-10" value="" style="line;strokeWidth=2;fillColor=none;align=left;verticalAlign=middle;spacingTop=-1;spacingLeft=3;spacingRight=3;rotatable=0;labelPosition=right;points=[];portConstraint=eastwest;" parent="8BI7KFvEaQHY4zSP8mBb-7" vertex="1">
                    <mxGeometry y="66" width="360" height="8" as="geometry"/>
                </mxCell>
                <mxCell id="8BI7KFvEaQHY4zSP8mBb-11" value="+ init()&#10;Initiation" style="text;fillColor=none;align=left;verticalAlign=top;spacingLeft=4;spacingRight=4;overflow=hidden;rotatable=0;points=[[0,0.5],[1,0.5]];portConstraint=eastwest;dashed=1;collapsible=1;spacingBottom=1;strokeColor=#000000;" parent="8BI7KFvEaQHY4zSP8mBb-7" vertex="1">
                    <mxGeometry y="74" width="360" height="40" as="geometry">
                        <mxRectangle y="86" width="360" height="20" as="alternateBounds"/>
                    </mxGeometry>
                </mxCell>
                <mxCell id="913Ao8ccXw4KyV2-wZr9-0" value="Relation" style="endArrow=open;html=1;endSize=12;startArrow=diamondThin;startSize=14;startFill=1;edgeStyle=orthogonalEdgeStyle;rounded=0;curved=1;dashed=1;" parent="ShmAaooDHbrHlHVb1YOy-20" source="8BI7KFvEaQHY4zSP8mBb-7" target="8BI7KFvEaQHY4zSP8mBb-16" edge="1">
                    <mxGeometry x="0.2188" y="-34" relative="1" as="geometry">
                        <mxPoint x="-100" y="260" as="sourcePoint"/>
                        <mxPoint x="50" y="220" as="targetPoint"/>
                        <mxPoint as="offset"/>
                    </mxGeometry>
                </mxCell>
                <mxCell id="913Ao8ccXw4KyV2-wZr9-1" value="1" style="edgeLabel;resizable=0;html=1;align=left;verticalAlign=top;" parent="913Ao8ccXw4KyV2-wZr9-0" connectable="0" vertex="1">
                    <mxGeometry x="-1" relative="1" as="geometry">
                        <mxPoint x="-10" y="-40" as="offset"/>
                    </mxGeometry>
                </mxCell>
                <mxCell id="913Ao8ccXw4KyV2-wZr9-2" value="1" style="edgeLabel;resizable=0;html=1;align=right;verticalAlign=top;" parent="913Ao8ccXw4KyV2-wZr9-0" connectable="0" vertex="1">
                    <mxGeometry x="1" relative="1" as="geometry">
                        <mxPoint x="20" as="offset"/>
                    </mxGeometry>
                </mxCell>
            </root>
        </mxGraphModel>
    </diagram>
    <diagram id="lrwSi-2ZTnFXEVvdW3J6" name="DB structure">
        <mxGraphModel dx="1422" dy="890" grid="1" gridSize="10" guides="1" tooltips="1" connect="1" arrows="1" fold="1" page="1" pageScale="1" pageWidth="1169" pageHeight="827" math="0" shadow="0">
            <root>
                <mxCell id="0"/>
                <mxCell id="1" parent="0"/>
                <mxCell id="9tyf6hlYzywo2Q4WIyfn-89" value="Items" style="shape=table;startSize=30;container=1;collapsible=1;childLayout=tableLayout;fixedRows=1;rowLines=0;fontStyle=1;align=center;resizeLast=1;" parent="1" vertex="1">
                    <mxGeometry x="90" y="60" width="990" height="310" as="geometry"/>
                </mxCell>
                <mxCell id="9tyf6hlYzywo2Q4WIyfn-90" value="" style="shape=partialRectangle;collapsible=0;dropTarget=0;pointerEvents=0;fillColor=none;top=0;left=0;bottom=1;right=0;points=[[0,0.5],[1,0.5]];portConstraint=eastwest;strokeWidth=3;" parent="9tyf6hlYzywo2Q4WIyfn-89" vertex="1">
                    <mxGeometry y="30" width="990" height="30" as="geometry"/>
                </mxCell>
                <mxCell id="9tyf6hlYzywo2Q4WIyfn-91" value="Keys" style="shape=partialRectangle;connectable=0;fillColor=none;top=0;left=0;bottom=0;right=0;fontStyle=1;overflow=hidden;" parent="9tyf6hlYzywo2Q4WIyfn-90" vertex="1">
                    <mxGeometry width="60" height="30" as="geometry"/>
                </mxCell>
                <mxCell id="9tyf6hlYzywo2Q4WIyfn-92" value="Field" style="shape=partialRectangle;connectable=0;fillColor=none;top=0;left=0;bottom=0;right=0;align=left;spacingLeft=6;fontStyle=1;overflow=hidden;" parent="9tyf6hlYzywo2Q4WIyfn-90" vertex="1">
                    <mxGeometry x="60" width="60" height="30" as="geometry"/>
                </mxCell>
                <mxCell id="9tyf6hlYzywo2Q4WIyfn-106" value="Type" style="shape=partialRectangle;connectable=0;fillColor=none;top=0;left=0;bottom=0;right=0;align=left;spacingLeft=6;fontStyle=1;overflow=hidden;" parent="9tyf6hlYzywo2Q4WIyfn-90" vertex="1">
                    <mxGeometry x="120" width="60" height="30" as="geometry"/>
                </mxCell>
                <mxCell id="9tyf6hlYzywo2Q4WIyfn-102" value="Null" style="shape=partialRectangle;connectable=0;fillColor=none;top=0;left=0;bottom=0;right=0;align=left;spacingLeft=6;fontStyle=1;overflow=hidden;flipH=0;" parent="9tyf6hlYzywo2Q4WIyfn-90" vertex="1">
                    <mxGeometry x="180" width="30" height="30" as="geometry"/>
                </mxCell>
                <mxCell id="9tyf6hlYzywo2Q4WIyfn-114" value="Example" style="shape=partialRectangle;connectable=0;fillColor=none;top=0;left=0;bottom=0;right=0;align=left;spacingLeft=6;fontStyle=1;overflow=hidden;" parent="9tyf6hlYzywo2Q4WIyfn-90" vertex="1">
                    <mxGeometry x="210" width="120" height="30" as="geometry"/>
                </mxCell>
                <mxCell id="9tyf6hlYzywo2Q4WIyfn-110" value="Russian" style="shape=partialRectangle;connectable=0;fillColor=none;top=0;left=0;bottom=0;right=0;align=left;spacingLeft=6;fontStyle=1;overflow=hidden;" parent="9tyf6hlYzywo2Q4WIyfn-90" vertex="1">
                    <mxGeometry x="330" width="200" height="30" as="geometry"/>
                </mxCell>
                <mxCell id="9tyf6hlYzywo2Q4WIyfn-153" value="Question" style="shape=partialRectangle;connectable=0;fillColor=none;top=0;left=0;bottom=0;right=0;align=left;spacingLeft=6;fontStyle=1;overflow=hidden;" parent="9tyf6hlYzywo2Q4WIyfn-90" vertex="1">
                    <mxGeometry x="530" width="460" height="30" as="geometry"/>
                </mxCell>
                <mxCell id="9tyf6hlYzywo2Q4WIyfn-93" value="" style="shape=partialRectangle;collapsible=0;dropTarget=0;pointerEvents=0;fillColor=none;top=0;left=0;bottom=1;right=0;points=[[0,0.5],[1,0.5]];portConstraint=eastwest;fontStyle=0" parent="9tyf6hlYzywo2Q4WIyfn-89" vertex="1">
                    <mxGeometry y="60" width="990" height="30" as="geometry"/>
                </mxCell>
                <mxCell id="9tyf6hlYzywo2Q4WIyfn-94" value="PK" style="shape=partialRectangle;connectable=0;fillColor=none;top=0;left=0;bottom=0;right=0;fontStyle=0;overflow=hidden;" parent="9tyf6hlYzywo2Q4WIyfn-93" vertex="1">
                    <mxGeometry width="60" height="30" as="geometry"/>
                </mxCell>
                <mxCell id="9tyf6hlYzywo2Q4WIyfn-95" value="id" style="shape=partialRectangle;connectable=0;fillColor=none;top=0;left=0;bottom=0;right=0;align=left;spacingLeft=6;fontStyle=0;overflow=hidden;" parent="9tyf6hlYzywo2Q4WIyfn-93" vertex="1">
                    <mxGeometry x="60" width="60" height="30" as="geometry"/>
                </mxCell>
                <mxCell id="9tyf6hlYzywo2Q4WIyfn-107" value="int" style="shape=partialRectangle;connectable=0;fillColor=none;top=0;left=0;bottom=0;right=0;align=left;spacingLeft=6;fontStyle=0;overflow=hidden;" parent="9tyf6hlYzywo2Q4WIyfn-93" vertex="1">
                    <mxGeometry x="120" width="60" height="30" as="geometry"/>
                </mxCell>
                <mxCell id="9tyf6hlYzywo2Q4WIyfn-103" value="no" style="shape=partialRectangle;connectable=0;fillColor=none;top=0;left=0;bottom=0;right=0;align=left;spacingLeft=6;fontStyle=0;overflow=hidden;" parent="9tyf6hlYzywo2Q4WIyfn-93" vertex="1">
                    <mxGeometry x="180" width="30" height="30" as="geometry"/>
                </mxCell>
                <mxCell id="9tyf6hlYzywo2Q4WIyfn-115" value="10448701" style="shape=partialRectangle;connectable=0;fillColor=none;top=0;left=0;bottom=0;right=0;align=left;spacingLeft=6;fontStyle=0;overflow=hidden;" parent="9tyf6hlYzywo2Q4WIyfn-93" vertex="1">
                    <mxGeometry x="210" width="120" height="30" as="geometry"/>
                </mxCell>
                <mxCell id="9tyf6hlYzywo2Q4WIyfn-111" value="ÐºÐ¾Ð´" style="shape=partialRectangle;connectable=0;fillColor=none;top=0;left=0;bottom=0;right=0;align=left;spacingLeft=6;fontStyle=0;overflow=hidden;" parent="9tyf6hlYzywo2Q4WIyfn-93" vertex="1">
                    <mxGeometry x="330" width="200" height="30" as="geometry"/>
                </mxCell>
                <mxCell id="9tyf6hlYzywo2Q4WIyfn-154" value="Unique?" style="shape=partialRectangle;connectable=0;fillColor=none;top=0;left=0;bottom=0;right=0;align=left;spacingLeft=6;fontStyle=0;overflow=hidden;" parent="9tyf6hlYzywo2Q4WIyfn-93" vertex="1">
                    <mxGeometry x="530" width="460" height="30" as="geometry"/>
                </mxCell>
                <mxCell id="9tyf6hlYzywo2Q4WIyfn-96" value="" style="shape=partialRectangle;collapsible=0;dropTarget=0;pointerEvents=0;fillColor=none;top=0;left=0;bottom=0;right=0;points=[[0,0.5],[1,0.5]];portConstraint=eastwest;" parent="9tyf6hlYzywo2Q4WIyfn-89" vertex="1">
                    <mxGeometry y="90" width="990" height="30" as="geometry"/>
                </mxCell>
                <mxCell id="9tyf6hlYzywo2Q4WIyfn-97" value="" style="shape=partialRectangle;connectable=0;fillColor=none;top=0;left=0;bottom=0;right=0;editable=1;overflow=hidden;" parent="9tyf6hlYzywo2Q4WIyfn-96" vertex="1">
                    <mxGeometry width="60" height="30" as="geometry"/>
                </mxCell>
                <mxCell id="9tyf6hlYzywo2Q4WIyfn-98" value="title" style="shape=partialRectangle;connectable=0;fillColor=none;top=0;left=0;bottom=0;right=0;align=left;spacingLeft=6;overflow=hidden;" parent="9tyf6hlYzywo2Q4WIyfn-96" vertex="1">
                    <mxGeometry x="60" width="60" height="30" as="geometry"/>
                </mxCell>
                <mxCell id="9tyf6hlYzywo2Q4WIyfn-108" value="str" style="shape=partialRectangle;connectable=0;fillColor=none;top=0;left=0;bottom=0;right=0;align=left;spacingLeft=6;overflow=hidden;fontStyle=0" parent="9tyf6hlYzywo2Q4WIyfn-96" vertex="1">
                    <mxGeometry x="120" width="60" height="30" as="geometry"/>
                </mxCell>
                <mxCell id="9tyf6hlYzywo2Q4WIyfn-104" value="no" style="shape=partialRectangle;connectable=0;fillColor=none;top=0;left=0;bottom=0;right=0;align=left;spacingLeft=6;overflow=hidden;fontStyle=0" parent="9tyf6hlYzywo2Q4WIyfn-96" vertex="1">
                    <mxGeometry x="180" width="30" height="30" as="geometry"/>
                </mxCell>
                <mxCell id="9tyf6hlYzywo2Q4WIyfn-116" value="ÐÐ°Ð±ÐµÐ»Ñ ÐÐÐÐÐ­Ð½Ð³ 10Ñ0,75" style="shape=partialRectangle;connectable=0;fillColor=none;top=0;left=0;bottom=0;right=0;align=left;spacingLeft=6;overflow=hidden;fontStyle=0" parent="9tyf6hlYzywo2Q4WIyfn-96" vertex="1">
                    <mxGeometry x="210" width="120" height="30" as="geometry"/>
                </mxCell>
                <mxCell id="9tyf6hlYzywo2Q4WIyfn-112" value="ÐÐ¾Ð»Ð½Ð¾Ðµ Ð½Ð°Ð¸Ð¼ÐµÐ½Ð¾Ð²Ð°Ð½Ð¸Ðµ ÐÐ¢Ð  (ÐÐÐ¡Ð¢,Ð¢Ð£,â ÑÐµÑÑÐµÐ¶Ð°)" style="shape=partialRectangle;connectable=0;fillColor=none;top=0;left=0;bottom=0;right=0;align=left;spacingLeft=6;overflow=hidden;fontStyle=0" parent="9tyf6hlYzywo2Q4WIyfn-96" vertex="1">
                    <mxGeometry x="330" width="200" height="30" as="geometry"/>
                </mxCell>
                <mxCell id="9tyf6hlYzywo2Q4WIyfn-155" style="shape=partialRectangle;connectable=0;fillColor=none;top=0;left=0;bottom=0;right=0;align=left;spacingLeft=6;overflow=hidden;fontStyle=0" parent="9tyf6hlYzywo2Q4WIyfn-96" vertex="1">
                    <mxGeometry x="530" width="460" height="30" as="geometry"/>
                </mxCell>
                <mxCell id="9tyf6hlYzywo2Q4WIyfn-99" value="" style="shape=partialRectangle;collapsible=0;dropTarget=0;pointerEvents=0;fillColor=none;top=0;left=0;bottom=0;right=0;points=[[0,0.5],[1,0.5]];portConstraint=eastwest;" parent="9tyf6hlYzywo2Q4WIyfn-89" vertex="1">
                    <mxGeometry y="120" width="990" height="30" as="geometry"/>
                </mxCell>
                <mxCell id="9tyf6hlYzywo2Q4WIyfn-100" value="" style="shape=partialRectangle;connectable=0;fillColor=none;top=0;left=0;bottom=0;right=0;editable=1;overflow=hidden;" parent="9tyf6hlYzywo2Q4WIyfn-99" vertex="1">
                    <mxGeometry width="60" height="30" as="geometry"/>
                </mxCell>
                <mxCell id="9tyf6hlYzywo2Q4WIyfn-101" value="details" style="shape=partialRectangle;connectable=0;fillColor=none;top=0;left=0;bottom=0;right=0;align=left;spacingLeft=6;overflow=hidden;" parent="9tyf6hlYzywo2Q4WIyfn-99" vertex="1">
                    <mxGeometry x="60" width="60" height="30" as="geometry"/>
                </mxCell>
                <mxCell id="9tyf6hlYzywo2Q4WIyfn-109" value="str" style="shape=partialRectangle;connectable=0;fillColor=none;top=0;left=0;bottom=0;right=0;align=left;spacingLeft=6;overflow=hidden;fontStyle=0" parent="9tyf6hlYzywo2Q4WIyfn-99" vertex="1">
                    <mxGeometry x="120" width="60" height="30" as="geometry"/>
                </mxCell>
                <mxCell id="9tyf6hlYzywo2Q4WIyfn-105" value="yes" style="shape=partialRectangle;connectable=0;fillColor=none;top=0;left=0;bottom=0;right=0;align=left;spacingLeft=6;overflow=hidden;fontStyle=0" parent="9tyf6hlYzywo2Q4WIyfn-99" vertex="1">
                    <mxGeometry x="180" width="30" height="30" as="geometry"/>
                </mxCell>
                <mxCell id="9tyf6hlYzywo2Q4WIyfn-117" value="ÐÐÐ¡Ð¢ 1508-78" style="shape=partialRectangle;connectable=0;fillColor=none;top=0;left=0;bottom=0;right=0;align=left;spacingLeft=6;overflow=hidden;fontStyle=0" parent="9tyf6hlYzywo2Q4WIyfn-99" vertex="1">
                    <mxGeometry x="210" width="120" height="30" as="geometry"/>
                </mxCell>
                <mxCell id="9tyf6hlYzywo2Q4WIyfn-113" value="ÐÐÐ¡Ð¢, â ÑÐµÑÑÐµÐ¶Ð°, ÑÐ°ÑÐ°ÐºÑÐµÑÐ¸ÑÑÐ¸ÐºÐ¸" style="shape=partialRectangle;connectable=0;fillColor=none;top=0;left=0;bottom=0;right=0;align=left;spacingLeft=6;overflow=hidden;fontStyle=0" parent="9tyf6hlYzywo2Q4WIyfn-99" vertex="1">
                    <mxGeometry x="330" width="200" height="30" as="geometry"/>
                </mxCell>
                <mxCell id="9tyf6hlYzywo2Q4WIyfn-156" style="shape=partialRectangle;connectable=0;fillColor=none;top=0;left=0;bottom=0;right=0;align=left;spacingLeft=6;overflow=hidden;fontStyle=0" parent="9tyf6hlYzywo2Q4WIyfn-99" vertex="1">
                    <mxGeometry x="530" width="460" height="30" as="geometry"/>
                </mxCell>
                <mxCell id="9tyf6hlYzywo2Q4WIyfn-118" style="shape=partialRectangle;collapsible=0;dropTarget=0;pointerEvents=0;fillColor=none;top=0;left=0;bottom=0;right=0;points=[[0,0.5],[1,0.5]];portConstraint=eastwest;" parent="9tyf6hlYzywo2Q4WIyfn-89" vertex="1">
                    <mxGeometry y="150" width="990" height="30" as="geometry"/>
                </mxCell>
                <mxCell id="9tyf6hlYzywo2Q4WIyfn-119" style="shape=partialRectangle;connectable=0;fillColor=none;top=0;left=0;bottom=0;right=0;editable=1;overflow=hidden;" parent="9tyf6hlYzywo2Q4WIyfn-118" vertex="1">
                    <mxGeometry width="60" height="30" as="geometry"/>
                </mxCell>
                <mxCell id="9tyf6hlYzywo2Q4WIyfn-120" value="measure" style="shape=partialRectangle;connectable=0;fillColor=none;top=0;left=0;bottom=0;right=0;align=left;spacingLeft=6;overflow=hidden;" parent="9tyf6hlYzywo2Q4WIyfn-118" vertex="1">
                    <mxGeometry x="60" width="60" height="30" as="geometry"/>
                </mxCell>
                <mxCell id="9tyf6hlYzywo2Q4WIyfn-121" value="str(16)" style="shape=partialRectangle;connectable=0;fillColor=none;top=0;left=0;bottom=0;right=0;align=left;spacingLeft=6;overflow=hidden;fontStyle=0" parent="9tyf6hlYzywo2Q4WIyfn-118" vertex="1">
                    <mxGeometry x="120" width="60" height="30" as="geometry"/>
                </mxCell>
                <mxCell id="9tyf6hlYzywo2Q4WIyfn-122" value="no" style="shape=partialRectangle;connectable=0;fillColor=none;top=0;left=0;bottom=0;right=0;align=left;spacingLeft=6;overflow=hidden;fontStyle=0" parent="9tyf6hlYzywo2Q4WIyfn-118" vertex="1">
                    <mxGeometry x="180" width="30" height="30" as="geometry"/>
                </mxCell>
                <mxCell id="9tyf6hlYzywo2Q4WIyfn-123" value="M" style="shape=partialRectangle;connectable=0;fillColor=none;top=0;left=0;bottom=0;right=0;align=left;spacingLeft=6;overflow=hidden;fontStyle=0" parent="9tyf6hlYzywo2Q4WIyfn-118" vertex="1">
                    <mxGeometry x="210" width="120" height="30" as="geometry"/>
                </mxCell>
                <mxCell id="9tyf6hlYzywo2Q4WIyfn-124" value="ÐµÐ´.Ð¸Ð·Ð¼" style="shape=partialRectangle;connectable=0;fillColor=none;top=0;left=0;bottom=0;right=0;align=left;spacingLeft=6;overflow=hidden;fontStyle=0" parent="9tyf6hlYzywo2Q4WIyfn-118" vertex="1">
                    <mxGeometry x="330" width="200" height="30" as="geometry"/>
                </mxCell>
                <mxCell id="9tyf6hlYzywo2Q4WIyfn-157" style="shape=partialRectangle;connectable=0;fillColor=none;top=0;left=0;bottom=0;right=0;align=left;spacingLeft=6;overflow=hidden;fontStyle=0" parent="9tyf6hlYzywo2Q4WIyfn-118" vertex="1">
                    <mxGeometry x="530" width="460" height="30" as="geometry"/>
                </mxCell>
                <mxCell id="9tyf6hlYzywo2Q4WIyfn-125" style="shape=partialRectangle;collapsible=0;dropTarget=0;pointerEvents=0;fillColor=none;top=0;left=0;bottom=0;right=0;points=[[0,0.5],[1,0.5]];portConstraint=eastwest;" parent="9tyf6hlYzywo2Q4WIyfn-89" vertex="1">
                    <mxGeometry y="180" width="990" height="30" as="geometry"/>
                </mxCell>
                <mxCell id="9tyf6hlYzywo2Q4WIyfn-126" style="shape=partialRectangle;connectable=0;fillColor=none;top=0;left=0;bottom=0;right=0;editable=1;overflow=hidden;" parent="9tyf6hlYzywo2Q4WIyfn-125" vertex="1">
                    <mxGeometry width="60" height="30" as="geometry"/>
                </mxCell>
                <mxCell id="9tyf6hlYzywo2Q4WIyfn-127" value="price" style="shape=partialRectangle;connectable=0;fillColor=none;top=0;left=0;bottom=0;right=0;align=left;spacingLeft=6;overflow=hidden;" parent="9tyf6hlYzywo2Q4WIyfn-125" vertex="1">
                    <mxGeometry x="60" width="60" height="30" as="geometry"/>
                </mxCell>
                <mxCell id="9tyf6hlYzywo2Q4WIyfn-128" value="float" style="shape=partialRectangle;connectable=0;fillColor=none;top=0;left=0;bottom=0;right=0;align=left;spacingLeft=6;overflow=hidden;fontStyle=0" parent="9tyf6hlYzywo2Q4WIyfn-125" vertex="1">
                    <mxGeometry x="120" width="60" height="30" as="geometry"/>
                </mxCell>
                <mxCell id="9tyf6hlYzywo2Q4WIyfn-129" value="no" style="shape=partialRectangle;connectable=0;fillColor=none;top=0;left=0;bottom=0;right=0;align=left;spacingLeft=6;overflow=hidden;fontStyle=0" parent="9tyf6hlYzywo2Q4WIyfn-125" vertex="1">
                    <mxGeometry x="180" width="30" height="30" as="geometry"/>
                </mxCell>
                <mxCell id="9tyf6hlYzywo2Q4WIyfn-130" value="124.87" style="shape=partialRectangle;connectable=0;fillColor=none;top=0;left=0;bottom=0;right=0;align=left;spacingLeft=6;overflow=hidden;fontStyle=0" parent="9tyf6hlYzywo2Q4WIyfn-125" vertex="1">
                    <mxGeometry x="210" width="120" height="30" as="geometry"/>
                </mxCell>
                <mxCell id="9tyf6hlYzywo2Q4WIyfn-131" value="Ð¦ÐµÐ½Ð° Ð¿Ð»Ð°Ð½Ð¾Ð²Ð°Ñ, ÑÑÐ±." style="shape=partialRectangle;connectable=0;fillColor=none;top=0;left=0;bottom=0;right=0;align=left;spacingLeft=6;overflow=hidden;fontStyle=0" parent="9tyf6hlYzywo2Q4WIyfn-125" vertex="1">
                    <mxGeometry x="330" width="200" height="30" as="geometry"/>
                </mxCell>
                <mxCell id="9tyf6hlYzywo2Q4WIyfn-158" style="shape=partialRectangle;connectable=0;fillColor=none;top=0;left=0;bottom=0;right=0;align=left;spacingLeft=6;overflow=hidden;fontStyle=0" parent="9tyf6hlYzywo2Q4WIyfn-125" vertex="1">
                    <mxGeometry x="530" width="460" height="30" as="geometry"/>
                </mxCell>
                <mxCell id="9tyf6hlYzywo2Q4WIyfn-132" style="shape=partialRectangle;collapsible=0;dropTarget=0;pointerEvents=0;fillColor=none;top=0;left=0;bottom=0;right=0;points=[[0,0.5],[1,0.5]];portConstraint=eastwest;" parent="9tyf6hlYzywo2Q4WIyfn-89" vertex="1">
                    <mxGeometry y="210" width="990" height="30" as="geometry"/>
                </mxCell>
                <mxCell id="9tyf6hlYzywo2Q4WIyfn-133" style="shape=partialRectangle;connectable=0;fillColor=none;top=0;left=0;bottom=0;right=0;editable=1;overflow=hidden;" parent="9tyf6hlYzywo2Q4WIyfn-132" vertex="1">
                    <mxGeometry width="60" height="30" as="geometry"/>
                </mxCell>
                <mxCell id="9tyf6hlYzywo2Q4WIyfn-134" value="created" style="shape=partialRectangle;connectable=0;fillColor=none;top=0;left=0;bottom=0;right=0;align=left;spacingLeft=6;overflow=hidden;" parent="9tyf6hlYzywo2Q4WIyfn-132" vertex="1">
                    <mxGeometry x="60" width="60" height="30" as="geometry"/>
                </mxCell>
                <mxCell id="9tyf6hlYzywo2Q4WIyfn-135" value="DateTime" style="shape=partialRectangle;connectable=0;fillColor=none;top=0;left=0;bottom=0;right=0;align=left;spacingLeft=6;overflow=hidden;fontStyle=0" parent="9tyf6hlYzywo2Q4WIyfn-132" vertex="1">
                    <mxGeometry x="120" width="60" height="30" as="geometry"/>
                </mxCell>
                <mxCell id="9tyf6hlYzywo2Q4WIyfn-136" value="no" style="shape=partialRectangle;connectable=0;fillColor=none;top=0;left=0;bottom=0;right=0;align=left;spacingLeft=6;overflow=hidden;fontStyle=0" parent="9tyf6hlYzywo2Q4WIyfn-132" vertex="1">
                    <mxGeometry x="180" width="30" height="30" as="geometry"/>
                </mxCell>
                <mxCell id="9tyf6hlYzywo2Q4WIyfn-137" value="2021-11-03 12:44:20" style="shape=partialRectangle;connectable=0;fillColor=none;top=0;left=0;bottom=0;right=0;align=left;spacingLeft=6;overflow=hidden;fontStyle=0" parent="9tyf6hlYzywo2Q4WIyfn-132" vertex="1">
                    <mxGeometry x="210" width="120" height="30" as="geometry"/>
                </mxCell>
                <mxCell id="9tyf6hlYzywo2Q4WIyfn-138" style="shape=partialRectangle;connectable=0;fillColor=none;top=0;left=0;bottom=0;right=0;align=left;spacingLeft=6;overflow=hidden;fontStyle=0" parent="9tyf6hlYzywo2Q4WIyfn-132" vertex="1">
                    <mxGeometry x="330" width="200" height="30" as="geometry"/>
                </mxCell>
                <mxCell id="9tyf6hlYzywo2Q4WIyfn-159" style="shape=partialRectangle;connectable=0;fillColor=none;top=0;left=0;bottom=0;right=0;align=left;spacingLeft=6;overflow=hidden;fontStyle=0" parent="9tyf6hlYzywo2Q4WIyfn-132" vertex="1">
                    <mxGeometry x="530" width="460" height="30" as="geometry"/>
                </mxCell>
                <mxCell id="9tyf6hlYzywo2Q4WIyfn-139" style="shape=partialRectangle;collapsible=0;dropTarget=0;pointerEvents=0;fillColor=none;top=0;left=0;bottom=0;right=0;points=[[0,0.5],[1,0.5]];portConstraint=eastwest;" parent="9tyf6hlYzywo2Q4WIyfn-89" vertex="1">
                    <mxGeometry y="240" width="990" height="30" as="geometry"/>
                </mxCell>
                <mxCell id="9tyf6hlYzywo2Q4WIyfn-140" style="shape=partialRectangle;connectable=0;fillColor=none;top=0;left=0;bottom=0;right=0;editable=1;overflow=hidden;" parent="9tyf6hlYzywo2Q4WIyfn-139" vertex="1">
                    <mxGeometry width="60" height="30" as="geometry"/>
                </mxCell>
                <mxCell id="9tyf6hlYzywo2Q4WIyfn-141" value="updated" style="shape=partialRectangle;connectable=0;fillColor=none;top=0;left=0;bottom=0;right=0;align=left;spacingLeft=6;overflow=hidden;" parent="9tyf6hlYzywo2Q4WIyfn-139" vertex="1">
                    <mxGeometry x="60" width="60" height="30" as="geometry"/>
                </mxCell>
                <mxCell id="9tyf6hlYzywo2Q4WIyfn-142" value="DateTime" style="shape=partialRectangle;connectable=0;fillColor=none;top=0;left=0;bottom=0;right=0;align=left;spacingLeft=6;overflow=hidden;fontStyle=0" parent="9tyf6hlYzywo2Q4WIyfn-139" vertex="1">
                    <mxGeometry x="120" width="60" height="30" as="geometry"/>
                </mxCell>
                <mxCell id="9tyf6hlYzywo2Q4WIyfn-143" value="yes" style="shape=partialRectangle;connectable=0;fillColor=none;top=0;left=0;bottom=0;right=0;align=left;spacingLeft=6;overflow=hidden;fontStyle=0" parent="9tyf6hlYzywo2Q4WIyfn-139" vertex="1">
                    <mxGeometry x="180" width="30" height="30" as="geometry"/>
                </mxCell>
                <mxCell id="9tyf6hlYzywo2Q4WIyfn-144" value="2021-11-03 12:44:20" style="shape=partialRectangle;connectable=0;fillColor=none;top=0;left=0;bottom=0;right=0;align=left;spacingLeft=6;overflow=hidden;fontStyle=0" parent="9tyf6hlYzywo2Q4WIyfn-139" vertex="1">
                    <mxGeometry x="210" width="120" height="30" as="geometry"/>
                </mxCell>
                <mxCell id="9tyf6hlYzywo2Q4WIyfn-145" style="shape=partialRectangle;connectable=0;fillColor=none;top=0;left=0;bottom=0;right=0;align=left;spacingLeft=6;overflow=hidden;fontStyle=0" parent="9tyf6hlYzywo2Q4WIyfn-139" vertex="1">
                    <mxGeometry x="330" width="200" height="30" as="geometry"/>
                </mxCell>
                <mxCell id="9tyf6hlYzywo2Q4WIyfn-160" style="shape=partialRectangle;connectable=0;fillColor=none;top=0;left=0;bottom=0;right=0;align=left;spacingLeft=6;overflow=hidden;fontStyle=0" parent="9tyf6hlYzywo2Q4WIyfn-139" vertex="1">
                    <mxGeometry x="530" width="460" height="30" as="geometry"/>
                </mxCell>
                <mxCell id="9tyf6hlYzywo2Q4WIyfn-146" style="shape=partialRectangle;collapsible=0;dropTarget=0;pointerEvents=0;fillColor=none;top=0;left=0;bottom=0;right=0;points=[[0,0.5],[1,0.5]];portConstraint=eastwest;" parent="9tyf6hlYzywo2Q4WIyfn-89" vertex="1">
                    <mxGeometry y="270" width="990" height="30" as="geometry"/>
                </mxCell>
                <mxCell id="9tyf6hlYzywo2Q4WIyfn-147" value="FK" style="shape=partialRectangle;connectable=0;fillColor=none;top=0;left=0;bottom=0;right=0;editable=1;overflow=hidden;" parent="9tyf6hlYzywo2Q4WIyfn-146" vertex="1">
                    <mxGeometry width="60" height="30" as="geometry"/>
                </mxCell>
                <mxCell id="9tyf6hlYzywo2Q4WIyfn-148" value="vendor" style="shape=partialRectangle;connectable=0;fillColor=none;top=0;left=0;bottom=0;right=0;align=left;spacingLeft=6;overflow=hidden;" parent="9tyf6hlYzywo2Q4WIyfn-146" vertex="1">
                    <mxGeometry x="60" width="60" height="30" as="geometry"/>
                </mxCell>
                <mxCell id="9tyf6hlYzywo2Q4WIyfn-149" value="int" style="shape=partialRectangle;connectable=0;fillColor=none;top=0;left=0;bottom=0;right=0;align=left;spacingLeft=6;overflow=hidden;fontStyle=0" parent="9tyf6hlYzywo2Q4WIyfn-146" vertex="1">
                    <mxGeometry x="120" width="60" height="30" as="geometry"/>
                </mxCell>
                <mxCell id="9tyf6hlYzywo2Q4WIyfn-150" value="no" style="shape=partialRectangle;connectable=0;fillColor=none;top=0;left=0;bottom=0;right=0;align=left;spacingLeft=6;overflow=hidden;fontStyle=0" parent="9tyf6hlYzywo2Q4WIyfn-146" vertex="1">
                    <mxGeometry x="180" width="30" height="30" as="geometry"/>
                </mxCell>
                <mxCell id="9tyf6hlYzywo2Q4WIyfn-151" value="999" style="shape=partialRectangle;connectable=0;fillColor=none;top=0;left=0;bottom=0;right=0;align=left;spacingLeft=6;overflow=hidden;fontStyle=0" parent="9tyf6hlYzywo2Q4WIyfn-146" vertex="1">
                    <mxGeometry x="210" width="120" height="30" as="geometry"/>
                </mxCell>
                <mxCell id="9tyf6hlYzywo2Q4WIyfn-152" style="shape=partialRectangle;connectable=0;fillColor=none;top=0;left=0;bottom=0;right=0;align=left;spacingLeft=6;overflow=hidden;fontStyle=0" parent="9tyf6hlYzywo2Q4WIyfn-146" vertex="1">
                    <mxGeometry x="330" width="200" height="30" as="geometry"/>
                </mxCell>
                <mxCell id="9tyf6hlYzywo2Q4WIyfn-161" value="Unique?" style="shape=partialRectangle;connectable=0;fillColor=none;top=0;left=0;bottom=0;right=0;align=left;spacingLeft=6;overflow=hidden;fontStyle=0" parent="9tyf6hlYzywo2Q4WIyfn-146" vertex="1">
                    <mxGeometry x="530" width="460" height="30" as="geometry"/>
                </mxCell>
                <mxCell id="9tyf6hlYzywo2Q4WIyfn-162" value="Partners" style="shape=table;startSize=30;container=1;collapsible=1;childLayout=tableLayout;fixedRows=1;rowLines=0;fontStyle=1;align=center;resizeLast=1;" parent="1" vertex="1">
                    <mxGeometry x="90" y="430" width="990" height="310" as="geometry"/>
                </mxCell>
                <mxCell id="9tyf6hlYzywo2Q4WIyfn-163" value="" style="shape=partialRectangle;collapsible=0;dropTarget=0;pointerEvents=0;fillColor=none;top=0;left=0;bottom=1;right=0;points=[[0,0.5],[1,0.5]];portConstraint=eastwest;strokeWidth=3;" parent="9tyf6hlYzywo2Q4WIyfn-162" vertex="1">
                    <mxGeometry y="30" width="990" height="30" as="geometry"/>
                </mxCell>
                <mxCell id="9tyf6hlYzywo2Q4WIyfn-164" value="Keys" style="shape=partialRectangle;connectable=0;fillColor=none;top=0;left=0;bottom=0;right=0;fontStyle=1;overflow=hidden;" parent="9tyf6hlYzywo2Q4WIyfn-163" vertex="1">
                    <mxGeometry width="60" height="30" as="geometry"/>
                </mxCell>
                <mxCell id="9tyf6hlYzywo2Q4WIyfn-165" value="Field" style="shape=partialRectangle;connectable=0;fillColor=none;top=0;left=0;bottom=0;right=0;align=left;spacingLeft=6;fontStyle=1;overflow=hidden;" parent="9tyf6hlYzywo2Q4WIyfn-163" vertex="1">
                    <mxGeometry x="60" width="60" height="30" as="geometry"/>
                </mxCell>
                <mxCell id="9tyf6hlYzywo2Q4WIyfn-166" value="Type" style="shape=partialRectangle;connectable=0;fillColor=none;top=0;left=0;bottom=0;right=0;align=left;spacingLeft=6;fontStyle=1;overflow=hidden;" parent="9tyf6hlYzywo2Q4WIyfn-163" vertex="1">
                    <mxGeometry x="120" width="60" height="30" as="geometry"/>
                </mxCell>
                <mxCell id="9tyf6hlYzywo2Q4WIyfn-167" value="Null" style="shape=partialRectangle;connectable=0;fillColor=none;top=0;left=0;bottom=0;right=0;align=left;spacingLeft=6;fontStyle=1;overflow=hidden;flipH=0;" parent="9tyf6hlYzywo2Q4WIyfn-163" vertex="1">
                    <mxGeometry x="180" width="30" height="30" as="geometry"/>
                </mxCell>
                <mxCell id="9tyf6hlYzywo2Q4WIyfn-168" value="Example" style="shape=partialRectangle;connectable=0;fillColor=none;top=0;left=0;bottom=0;right=0;align=left;spacingLeft=6;fontStyle=1;overflow=hidden;" parent="9tyf6hlYzywo2Q4WIyfn-163" vertex="1">
                    <mxGeometry x="210" width="120" height="30" as="geometry"/>
                </mxCell>
                <mxCell id="9tyf6hlYzywo2Q4WIyfn-169" value="Russian" style="shape=partialRectangle;connectable=0;fillColor=none;top=0;left=0;bottom=0;right=0;align=left;spacingLeft=6;fontStyle=1;overflow=hidden;" parent="9tyf6hlYzywo2Q4WIyfn-163" vertex="1">
                    <mxGeometry x="330" width="200" height="30" as="geometry"/>
                </mxCell>
                <mxCell id="9tyf6hlYzywo2Q4WIyfn-170" value="Question" style="shape=partialRectangle;connectable=0;fillColor=none;top=0;left=0;bottom=0;right=0;align=left;spacingLeft=6;fontStyle=1;overflow=hidden;" parent="9tyf6hlYzywo2Q4WIyfn-163" vertex="1">
                    <mxGeometry x="530" width="460" height="30" as="geometry"/>
                </mxCell>
                <mxCell id="9tyf6hlYzywo2Q4WIyfn-171" value="" style="shape=partialRectangle;collapsible=0;dropTarget=0;pointerEvents=0;fillColor=none;top=0;left=0;bottom=1;right=0;points=[[0,0.5],[1,0.5]];portConstraint=eastwest;fontStyle=0" parent="9tyf6hlYzywo2Q4WIyfn-162" vertex="1">
                    <mxGeometry y="60" width="990" height="30" as="geometry"/>
                </mxCell>
                <mxCell id="9tyf6hlYzywo2Q4WIyfn-172" value="PK" style="shape=partialRectangle;connectable=0;fillColor=none;top=0;left=0;bottom=0;right=0;fontStyle=0;overflow=hidden;" parent="9tyf6hlYzywo2Q4WIyfn-171" vertex="1">
                    <mxGeometry width="60" height="30" as="geometry"/>
                </mxCell>
                <mxCell id="9tyf6hlYzywo2Q4WIyfn-173" value="id" style="shape=partialRectangle;connectable=0;fillColor=none;top=0;left=0;bottom=0;right=0;align=left;spacingLeft=6;fontStyle=0;overflow=hidden;" parent="9tyf6hlYzywo2Q4WIyfn-171" vertex="1">
                    <mxGeometry x="60" width="60" height="30" as="geometry"/>
                </mxCell>
                <mxCell id="9tyf6hlYzywo2Q4WIyfn-174" value="int" style="shape=partialRectangle;connectable=0;fillColor=none;top=0;left=0;bottom=0;right=0;align=left;spacingLeft=6;fontStyle=0;overflow=hidden;" parent="9tyf6hlYzywo2Q4WIyfn-171" vertex="1">
                    <mxGeometry x="120" width="60" height="30" as="geometry"/>
                </mxCell>
                <mxCell id="9tyf6hlYzywo2Q4WIyfn-175" value="no" style="shape=partialRectangle;connectable=0;fillColor=none;top=0;left=0;bottom=0;right=0;align=left;spacingLeft=6;fontStyle=0;overflow=hidden;" parent="9tyf6hlYzywo2Q4WIyfn-171" vertex="1">
                    <mxGeometry x="180" width="30" height="30" as="geometry"/>
                </mxCell>
                <mxCell id="9tyf6hlYzywo2Q4WIyfn-176" value="10448701" style="shape=partialRectangle;connectable=0;fillColor=none;top=0;left=0;bottom=0;right=0;align=left;spacingLeft=6;fontStyle=0;overflow=hidden;" parent="9tyf6hlYzywo2Q4WIyfn-171" vertex="1">
                    <mxGeometry x="210" width="120" height="30" as="geometry"/>
                </mxCell>
                <mxCell id="9tyf6hlYzywo2Q4WIyfn-177" value="ÐºÐ¾Ð´ ÐºÐ¾Ð¼Ð¿Ð°Ð½Ð¸Ð¸" style="shape=partialRectangle;connectable=0;fillColor=none;top=0;left=0;bottom=0;right=0;align=left;spacingLeft=6;fontStyle=0;overflow=hidden;" parent="9tyf6hlYzywo2Q4WIyfn-171" vertex="1">
                    <mxGeometry x="330" width="200" height="30" as="geometry"/>
                </mxCell>
                <mxCell id="9tyf6hlYzywo2Q4WIyfn-178" value="Unique?" style="shape=partialRectangle;connectable=0;fillColor=none;top=0;left=0;bottom=0;right=0;align=left;spacingLeft=6;fontStyle=0;overflow=hidden;" parent="9tyf6hlYzywo2Q4WIyfn-171" vertex="1">
                    <mxGeometry x="530" width="460" height="30" as="geometry"/>
                </mxCell>
                <mxCell id="9tyf6hlYzywo2Q4WIyfn-179" value="" style="shape=partialRectangle;collapsible=0;dropTarget=0;pointerEvents=0;fillColor=none;top=0;left=0;bottom=0;right=0;points=[[0,0.5],[1,0.5]];portConstraint=eastwest;" parent="9tyf6hlYzywo2Q4WIyfn-162" vertex="1">
                    <mxGeometry y="90" width="990" height="30" as="geometry"/>
                </mxCell>
                <mxCell id="9tyf6hlYzywo2Q4WIyfn-180" value="" style="shape=partialRectangle;connectable=0;fillColor=none;top=0;left=0;bottom=0;right=0;editable=1;overflow=hidden;" parent="9tyf6hlYzywo2Q4WIyfn-179" vertex="1">
                    <mxGeometry width="60" height="30" as="geometry"/>
                </mxCell>
                <mxCell id="9tyf6hlYzywo2Q4WIyfn-181" value="title" style="shape=partialRectangle;connectable=0;fillColor=none;top=0;left=0;bottom=0;right=0;align=left;spacingLeft=6;overflow=hidden;" parent="9tyf6hlYzywo2Q4WIyfn-179" vertex="1">
                    <mxGeometry x="60" width="60" height="30" as="geometry"/>
                </mxCell>
                <mxCell id="9tyf6hlYzywo2Q4WIyfn-182" value="str" style="shape=partialRectangle;connectable=0;fillColor=none;top=0;left=0;bottom=0;right=0;align=left;spacingLeft=6;overflow=hidden;fontStyle=0" parent="9tyf6hlYzywo2Q4WIyfn-179" vertex="1">
                    <mxGeometry x="120" width="60" height="30" as="geometry"/>
                </mxCell>
                <mxCell id="9tyf6hlYzywo2Q4WIyfn-183" value="no" style="shape=partialRectangle;connectable=0;fillColor=none;top=0;left=0;bottom=0;right=0;align=left;spacingLeft=6;overflow=hidden;fontStyle=0" parent="9tyf6hlYzywo2Q4WIyfn-179" vertex="1">
                    <mxGeometry x="180" width="30" height="30" as="geometry"/>
                </mxCell>
                <mxCell id="9tyf6hlYzywo2Q4WIyfn-184" value="ÐÐ¾ÑÑÐ°Ð²ÑÐ¸Ðº â 1" style="shape=partialRectangle;connectable=0;fillColor=none;top=0;left=0;bottom=0;right=0;align=left;spacingLeft=6;overflow=hidden;fontStyle=0" parent="9tyf6hlYzywo2Q4WIyfn-179" vertex="1">
                    <mxGeometry x="210" width="120" height="30" as="geometry"/>
                </mxCell>
                <mxCell id="9tyf6hlYzywo2Q4WIyfn-185" value="ÐÐ¾Ð»Ð½Ð¾Ðµ Ð½Ð°Ð¸Ð¼ÐµÐ½Ð¾Ð²Ð°Ð½Ð¸Ðµ ÐÐ¢Ð  (ÐÐÐ¡Ð¢,Ð¢Ð£,â ÑÐµÑÑÐµÐ¶Ð°)" style="shape=partialRectangle;connectable=0;fillColor=none;top=0;left=0;bottom=0;right=0;align=left;spacingLeft=6;overflow=hidden;fontStyle=0" parent="9tyf6hlYzywo2Q4WIyfn-179" vertex="1">
                    <mxGeometry x="330" width="200" height="30" as="geometry"/>
                </mxCell>
                <mxCell id="9tyf6hlYzywo2Q4WIyfn-186" style="shape=partialRectangle;connectable=0;fillColor=none;top=0;left=0;bottom=0;right=0;align=left;spacingLeft=6;overflow=hidden;fontStyle=0" parent="9tyf6hlYzywo2Q4WIyfn-179" vertex="1">
                    <mxGeometry x="530" width="460" height="30" as="geometry"/>
                </mxCell>
                <mxCell id="9tyf6hlYzywo2Q4WIyfn-187" value="" style="shape=partialRectangle;collapsible=0;dropTarget=0;pointerEvents=0;fillColor=none;top=0;left=0;bottom=0;right=0;points=[[0,0.5],[1,0.5]];portConstraint=eastwest;" parent="9tyf6hlYzywo2Q4WIyfn-162" vertex="1">
                    <mxGeometry y="120" width="990" height="30" as="geometry"/>
                </mxCell>
                <mxCell id="9tyf6hlYzywo2Q4WIyfn-188" value="" style="shape=partialRectangle;connectable=0;fillColor=none;top=0;left=0;bottom=0;right=0;editable=1;overflow=hidden;" parent="9tyf6hlYzywo2Q4WIyfn-187" vertex="1">
                    <mxGeometry width="60" height="30" as="geometry"/>
                </mxCell>
                <mxCell id="9tyf6hlYzywo2Q4WIyfn-189" value="details" style="shape=partialRectangle;connectable=0;fillColor=none;top=0;left=0;bottom=0;right=0;align=left;spacingLeft=6;overflow=hidden;" parent="9tyf6hlYzywo2Q4WIyfn-187" vertex="1">
                    <mxGeometry x="60" width="60" height="30" as="geometry"/>
                </mxCell>
                <mxCell id="9tyf6hlYzywo2Q4WIyfn-190" value="str" style="shape=partialRectangle;connectable=0;fillColor=none;top=0;left=0;bottom=0;right=0;align=left;spacingLeft=6;overflow=hidden;fontStyle=0" parent="9tyf6hlYzywo2Q4WIyfn-187" vertex="1">
                    <mxGeometry x="120" width="60" height="30" as="geometry"/>
                </mxCell>
                <mxCell id="9tyf6hlYzywo2Q4WIyfn-191" value="yes" style="shape=partialRectangle;connectable=0;fillColor=none;top=0;left=0;bottom=0;right=0;align=left;spacingLeft=6;overflow=hidden;fontStyle=0" parent="9tyf6hlYzywo2Q4WIyfn-187" vertex="1">
                    <mxGeometry x="180" width="30" height="30" as="geometry"/>
                </mxCell>
                <mxCell id="9tyf6hlYzywo2Q4WIyfn-192" value="ÐÐÐ¡Ð¢ 1508-78" style="shape=partialRectangle;connectable=0;fillColor=none;top=0;left=0;bottom=0;right=0;align=left;spacingLeft=6;overflow=hidden;fontStyle=0" parent="9tyf6hlYzywo2Q4WIyfn-187" vertex="1">
                    <mxGeometry x="210" width="120" height="30" as="geometry"/>
                </mxCell>
                <mxCell id="9tyf6hlYzywo2Q4WIyfn-193" value="ÐÐÐ¡Ð¢, â ÑÐµÑÑÐµÐ¶Ð°, ÑÐ°ÑÐ°ÐºÑÐµÑÐ¸ÑÑÐ¸ÐºÐ¸" style="shape=partialRectangle;connectable=0;fillColor=none;top=0;left=0;bottom=0;right=0;align=left;spacingLeft=6;overflow=hidden;fontStyle=0" parent="9tyf6hlYzywo2Q4WIyfn-187" vertex="1">
                    <mxGeometry x="330" width="200" height="30" as="geometry"/>
                </mxCell>
                <mxCell id="9tyf6hlYzywo2Q4WIyfn-194" style="shape=partialRectangle;connectable=0;fillColor=none;top=0;left=0;bottom=0;right=0;align=left;spacingLeft=6;overflow=hidden;fontStyle=0" parent="9tyf6hlYzywo2Q4WIyfn-187" vertex="1">
                    <mxGeometry x="530" width="460" height="30" as="geometry"/>
                </mxCell>
                <mxCell id="9tyf6hlYzywo2Q4WIyfn-195" style="shape=partialRectangle;collapsible=0;dropTarget=0;pointerEvents=0;fillColor=none;top=0;left=0;bottom=0;right=0;points=[[0,0.5],[1,0.5]];portConstraint=eastwest;" parent="9tyf6hlYzywo2Q4WIyfn-162" vertex="1">
                    <mxGeometry y="150" width="990" height="30" as="geometry"/>
                </mxCell>
                <mxCell id="9tyf6hlYzywo2Q4WIyfn-196" style="shape=partialRectangle;connectable=0;fillColor=none;top=0;left=0;bottom=0;right=0;editable=1;overflow=hidden;" parent="9tyf6hlYzywo2Q4WIyfn-195" vertex="1">
                    <mxGeometry width="60" height="30" as="geometry"/>
                </mxCell>
                <mxCell id="9tyf6hlYzywo2Q4WIyfn-197" value="measure" style="shape=partialRectangle;connectable=0;fillColor=none;top=0;left=0;bottom=0;right=0;align=left;spacingLeft=6;overflow=hidden;" parent="9tyf6hlYzywo2Q4WIyfn-195" vertex="1">
                    <mxGeometry x="60" width="60" height="30" as="geometry"/>
                </mxCell>
                <mxCell id="9tyf6hlYzywo2Q4WIyfn-198" value="str(16)" style="shape=partialRectangle;connectable=0;fillColor=none;top=0;left=0;bottom=0;right=0;align=left;spacingLeft=6;overflow=hidden;fontStyle=0" parent="9tyf6hlYzywo2Q4WIyfn-195" vertex="1">
                    <mxGeometry x="120" width="60" height="30" as="geometry"/>
                </mxCell>
                <mxCell id="9tyf6hlYzywo2Q4WIyfn-199" value="no" style="shape=partialRectangle;connectable=0;fillColor=none;top=0;left=0;bottom=0;right=0;align=left;spacingLeft=6;overflow=hidden;fontStyle=0" parent="9tyf6hlYzywo2Q4WIyfn-195" vertex="1">
                    <mxGeometry x="180" width="30" height="30" as="geometry"/>
                </mxCell>
                <mxCell id="9tyf6hlYzywo2Q4WIyfn-200" value="M" style="shape=partialRectangle;connectable=0;fillColor=none;top=0;left=0;bottom=0;right=0;align=left;spacingLeft=6;overflow=hidden;fontStyle=0" parent="9tyf6hlYzywo2Q4WIyfn-195" vertex="1">
                    <mxGeometry x="210" width="120" height="30" as="geometry"/>
                </mxCell>
                <mxCell id="9tyf6hlYzywo2Q4WIyfn-201" value="ÐµÐ´.Ð¸Ð·Ð¼" style="shape=partialRectangle;connectable=0;fillColor=none;top=0;left=0;bottom=0;right=0;align=left;spacingLeft=6;overflow=hidden;fontStyle=0" parent="9tyf6hlYzywo2Q4WIyfn-195" vertex="1">
                    <mxGeometry x="330" width="200" height="30" as="geometry"/>
                </mxCell>
                <mxCell id="9tyf6hlYzywo2Q4WIyfn-202" style="shape=partialRectangle;connectable=0;fillColor=none;top=0;left=0;bottom=0;right=0;align=left;spacingLeft=6;overflow=hidden;fontStyle=0" parent="9tyf6hlYzywo2Q4WIyfn-195" vertex="1">
                    <mxGeometry x="530" width="460" height="30" as="geometry"/>
                </mxCell>
                <mxCell id="9tyf6hlYzywo2Q4WIyfn-203" style="shape=partialRectangle;collapsible=0;dropTarget=0;pointerEvents=0;fillColor=none;top=0;left=0;bottom=0;right=0;points=[[0,0.5],[1,0.5]];portConstraint=eastwest;" parent="9tyf6hlYzywo2Q4WIyfn-162" vertex="1">
                    <mxGeometry y="180" width="990" height="30" as="geometry"/>
                </mxCell>
                <mxCell id="9tyf6hlYzywo2Q4WIyfn-204" style="shape=partialRectangle;connectable=0;fillColor=none;top=0;left=0;bottom=0;right=0;editable=1;overflow=hidden;" parent="9tyf6hlYzywo2Q4WIyfn-203" vertex="1">
                    <mxGeometry width="60" height="30" as="geometry"/>
                </mxCell>
                <mxCell id="9tyf6hlYzywo2Q4WIyfn-205" value="price" style="shape=partialRectangle;connectable=0;fillColor=none;top=0;left=0;bottom=0;right=0;align=left;spacingLeft=6;overflow=hidden;" parent="9tyf6hlYzywo2Q4WIyfn-203" vertex="1">
                    <mxGeometry x="60" width="60" height="30" as="geometry"/>
                </mxCell>
                <mxCell id="9tyf6hlYzywo2Q4WIyfn-206" value="float" style="shape=partialRectangle;connectable=0;fillColor=none;top=0;left=0;bottom=0;right=0;align=left;spacingLeft=6;overflow=hidden;fontStyle=0" parent="9tyf6hlYzywo2Q4WIyfn-203" vertex="1">
                    <mxGeometry x="120" width="60" height="30" as="geometry"/>
                </mxCell>
                <mxCell id="9tyf6hlYzywo2Q4WIyfn-207" value="no" style="shape=partialRectangle;connectable=0;fillColor=none;top=0;left=0;bottom=0;right=0;align=left;spacingLeft=6;overflow=hidden;fontStyle=0" parent="9tyf6hlYzywo2Q4WIyfn-203" vertex="1">
                    <mxGeometry x="180" width="30" height="30" as="geometry"/>
                </mxCell>
                <mxCell id="9tyf6hlYzywo2Q4WIyfn-208" value="124.87" style="shape=partialRectangle;connectable=0;fillColor=none;top=0;left=0;bottom=0;right=0;align=left;spacingLeft=6;overflow=hidden;fontStyle=0" parent="9tyf6hlYzywo2Q4WIyfn-203" vertex="1">
                    <mxGeometry x="210" width="120" height="30" as="geometry"/>
                </mxCell>
                <mxCell id="9tyf6hlYzywo2Q4WIyfn-209" value="Ð¦ÐµÐ½Ð° Ð¿Ð»Ð°Ð½Ð¾Ð²Ð°Ñ, ÑÑÐ±." style="shape=partialRectangle;connectable=0;fillColor=none;top=0;left=0;bottom=0;right=0;align=left;spacingLeft=6;overflow=hidden;fontStyle=0" parent="9tyf6hlYzywo2Q4WIyfn-203" vertex="1">
                    <mxGeometry x="330" width="200" height="30" as="geometry"/>
                </mxCell>
                <mxCell id="9tyf6hlYzywo2Q4WIyfn-210" style="shape=partialRectangle;connectable=0;fillColor=none;top=0;left=0;bottom=0;right=0;align=left;spacingLeft=6;overflow=hidden;fontStyle=0" parent="9tyf6hlYzywo2Q4WIyfn-203" vertex="1">
                    <mxGeometry x="530" width="460" height="30" as="geometry"/>
                </mxCell>
                <mxCell id="9tyf6hlYzywo2Q4WIyfn-211" style="shape=partialRectangle;collapsible=0;dropTarget=0;pointerEvents=0;fillColor=none;top=0;left=0;bottom=0;right=0;points=[[0,0.5],[1,0.5]];portConstraint=eastwest;" parent="9tyf6hlYzywo2Q4WIyfn-162" vertex="1">
                    <mxGeometry y="210" width="990" height="30" as="geometry"/>
                </mxCell>
                <mxCell id="9tyf6hlYzywo2Q4WIyfn-212" style="shape=partialRectangle;connectable=0;fillColor=none;top=0;left=0;bottom=0;right=0;editable=1;overflow=hidden;" parent="9tyf6hlYzywo2Q4WIyfn-211" vertex="1">
                    <mxGeometry width="60" height="30" as="geometry"/>
                </mxCell>
                <mxCell id="9tyf6hlYzywo2Q4WIyfn-213" value="created" style="shape=partialRectangle;connectable=0;fillColor=none;top=0;left=0;bottom=0;right=0;align=left;spacingLeft=6;overflow=hidden;" parent="9tyf6hlYzywo2Q4WIyfn-211" vertex="1">
                    <mxGeometry x="60" width="60" height="30" as="geometry"/>
                </mxCell>
                <mxCell id="9tyf6hlYzywo2Q4WIyfn-214" value="DateTime" style="shape=partialRectangle;connectable=0;fillColor=none;top=0;left=0;bottom=0;right=0;align=left;spacingLeft=6;overflow=hidden;fontStyle=0" parent="9tyf6hlYzywo2Q4WIyfn-211" vertex="1">
                    <mxGeometry x="120" width="60" height="30" as="geometry"/>
                </mxCell>
                <mxCell id="9tyf6hlYzywo2Q4WIyfn-215" value="no" style="shape=partialRectangle;connectable=0;fillColor=none;top=0;left=0;bottom=0;right=0;align=left;spacingLeft=6;overflow=hidden;fontStyle=0" parent="9tyf6hlYzywo2Q4WIyfn-211" vertex="1">
                    <mxGeometry x="180" width="30" height="30" as="geometry"/>
                </mxCell>
                <mxCell id="9tyf6hlYzywo2Q4WIyfn-216" value="2021-11-03 12:44:20" style="shape=partialRectangle;connectable=0;fillColor=none;top=0;left=0;bottom=0;right=0;align=left;spacingLeft=6;overflow=hidden;fontStyle=0" parent="9tyf6hlYzywo2Q4WIyfn-211" vertex="1">
                    <mxGeometry x="210" width="120" height="30" as="geometry"/>
                </mxCell>
                <mxCell id="9tyf6hlYzywo2Q4WIyfn-217" style="shape=partialRectangle;connectable=0;fillColor=none;top=0;left=0;bottom=0;right=0;align=left;spacingLeft=6;overflow=hidden;fontStyle=0" parent="9tyf6hlYzywo2Q4WIyfn-211" vertex="1">
                    <mxGeometry x="330" width="200" height="30" as="geometry"/>
                </mxCell>
                <mxCell id="9tyf6hlYzywo2Q4WIyfn-218" style="shape=partialRectangle;connectable=0;fillColor=none;top=0;left=0;bottom=0;right=0;align=left;spacingLeft=6;overflow=hidden;fontStyle=0" parent="9tyf6hlYzywo2Q4WIyfn-211" vertex="1">
                    <mxGeometry x="530" width="460" height="30" as="geometry"/>
                </mxCell>
                <mxCell id="9tyf6hlYzywo2Q4WIyfn-219" style="shape=partialRectangle;collapsible=0;dropTarget=0;pointerEvents=0;fillColor=none;top=0;left=0;bottom=0;right=0;points=[[0,0.5],[1,0.5]];portConstraint=eastwest;" parent="9tyf6hlYzywo2Q4WIyfn-162" vertex="1">
                    <mxGeometry y="240" width="990" height="30" as="geometry"/>
                </mxCell>
                <mxCell id="9tyf6hlYzywo2Q4WIyfn-220" style="shape=partialRectangle;connectable=0;fillColor=none;top=0;left=0;bottom=0;right=0;editable=1;overflow=hidden;" parent="9tyf6hlYzywo2Q4WIyfn-219" vertex="1">
                    <mxGeometry width="60" height="30" as="geometry"/>
                </mxCell>
                <mxCell id="9tyf6hlYzywo2Q4WIyfn-221" value="updated" style="shape=partialRectangle;connectable=0;fillColor=none;top=0;left=0;bottom=0;right=0;align=left;spacingLeft=6;overflow=hidden;" parent="9tyf6hlYzywo2Q4WIyfn-219" vertex="1">
                    <mxGeometry x="60" width="60" height="30" as="geometry"/>
                </mxCell>
                <mxCell id="9tyf6hlYzywo2Q4WIyfn-222" value="DateTime" style="shape=partialRectangle;connectable=0;fillColor=none;top=0;left=0;bottom=0;right=0;align=left;spacingLeft=6;overflow=hidden;fontStyle=0" parent="9tyf6hlYzywo2Q4WIyfn-219" vertex="1">
                    <mxGeometry x="120" width="60" height="30" as="geometry"/>
                </mxCell>
                <mxCell id="9tyf6hlYzywo2Q4WIyfn-223" value="yes" style="shape=partialRectangle;connectable=0;fillColor=none;top=0;left=0;bottom=0;right=0;align=left;spacingLeft=6;overflow=hidden;fontStyle=0" parent="9tyf6hlYzywo2Q4WIyfn-219" vertex="1">
                    <mxGeometry x="180" width="30" height="30" as="geometry"/>
                </mxCell>
                <mxCell id="9tyf6hlYzywo2Q4WIyfn-224" value="2021-11-03 12:44:20" style="shape=partialRectangle;connectable=0;fillColor=none;top=0;left=0;bottom=0;right=0;align=left;spacingLeft=6;overflow=hidden;fontStyle=0" parent="9tyf6hlYzywo2Q4WIyfn-219" vertex="1">
                    <mxGeometry x="210" width="120" height="30" as="geometry"/>
                </mxCell>
                <mxCell id="9tyf6hlYzywo2Q4WIyfn-225" style="shape=partialRectangle;connectable=0;fillColor=none;top=0;left=0;bottom=0;right=0;align=left;spacingLeft=6;overflow=hidden;fontStyle=0" parent="9tyf6hlYzywo2Q4WIyfn-219" vertex="1">
                    <mxGeometry x="330" width="200" height="30" as="geometry"/>
                </mxCell>
                <mxCell id="9tyf6hlYzywo2Q4WIyfn-226" style="shape=partialRectangle;connectable=0;fillColor=none;top=0;left=0;bottom=0;right=0;align=left;spacingLeft=6;overflow=hidden;fontStyle=0" parent="9tyf6hlYzywo2Q4WIyfn-219" vertex="1">
                    <mxGeometry x="530" width="460" height="30" as="geometry"/>
                </mxCell>
                <mxCell id="9tyf6hlYzywo2Q4WIyfn-227" style="shape=partialRectangle;collapsible=0;dropTarget=0;pointerEvents=0;fillColor=none;top=0;left=0;bottom=0;right=0;points=[[0,0.5],[1,0.5]];portConstraint=eastwest;" parent="9tyf6hlYzywo2Q4WIyfn-162" vertex="1">
                    <mxGeometry y="270" width="990" height="30" as="geometry"/>
                </mxCell>
                <mxCell id="9tyf6hlYzywo2Q4WIyfn-228" value="FK" style="shape=partialRectangle;connectable=0;fillColor=none;top=0;left=0;bottom=0;right=0;editable=1;overflow=hidden;" parent="9tyf6hlYzywo2Q4WIyfn-227" vertex="1">
                    <mxGeometry width="60" height="30" as="geometry"/>
                </mxCell>
                <mxCell id="9tyf6hlYzywo2Q4WIyfn-229" value="vendor" style="shape=partialRectangle;connectable=0;fillColor=none;top=0;left=0;bottom=0;right=0;align=left;spacingLeft=6;overflow=hidden;" parent="9tyf6hlYzywo2Q4WIyfn-227" vertex="1">
                    <mxGeometry x="60" width="60" height="30" as="geometry"/>
                </mxCell>
                <mxCell id="9tyf6hlYzywo2Q4WIyfn-230" value="int" style="shape=partialRectangle;connectable=0;fillColor=none;top=0;left=0;bottom=0;right=0;align=left;spacingLeft=6;overflow=hidden;fontStyle=0" parent="9tyf6hlYzywo2Q4WIyfn-227" vertex="1">
                    <mxGeometry x="120" width="60" height="30" as="geometry"/>
                </mxCell>
                <mxCell id="9tyf6hlYzywo2Q4WIyfn-231" value="no" style="shape=partialRectangle;connectable=0;fillColor=none;top=0;left=0;bottom=0;right=0;align=left;spacingLeft=6;overflow=hidden;fontStyle=0" parent="9tyf6hlYzywo2Q4WIyfn-227" vertex="1">
                    <mxGeometry x="180" width="30" height="30" as="geometry"/>
                </mxCell>
                <mxCell id="9tyf6hlYzywo2Q4WIyfn-232" value="999" style="shape=partialRectangle;connectable=0;fillColor=none;top=0;left=0;bottom=0;right=0;align=left;spacingLeft=6;overflow=hidden;fontStyle=0" parent="9tyf6hlYzywo2Q4WIyfn-227" vertex="1">
                    <mxGeometry x="210" width="120" height="30" as="geometry"/>
                </mxCell>
                <mxCell id="9tyf6hlYzywo2Q4WIyfn-233" style="shape=partialRectangle;connectable=0;fillColor=none;top=0;left=0;bottom=0;right=0;align=left;spacingLeft=6;overflow=hidden;fontStyle=0" parent="9tyf6hlYzywo2Q4WIyfn-227" vertex="1">
                    <mxGeometry x="330" width="200" height="30" as="geometry"/>
                </mxCell>
                <mxCell id="9tyf6hlYzywo2Q4WIyfn-234" value="Unique?" style="shape=partialRectangle;connectable=0;fillColor=none;top=0;left=0;bottom=0;right=0;align=left;spacingLeft=6;overflow=hidden;fontStyle=0" parent="9tyf6hlYzywo2Q4WIyfn-227" vertex="1">
                    <mxGeometry x="530" width="460" height="30" as="geometry"/>
                </mxCell>
            </root>
        </mxGraphModel>
    </diagram>
</mxfile>